<?xml version="1.0" standalone="no"?>
<!DOCTYPE svg PUBLIC "-//W3C//DTD SVG 1.1//EN" "http://www.w3.org/Graphics/SVG/1.1/DTD/svg11.dtd" >
<svg>
<metadata>
Created by FontForge 20110222 at Thu Mar 20 02:42:39 2014
 By Orthosie Webhosting
</metadata>
<defs>
<font id="TruchotteRegular" horiz-adv-x="455" >
  <font-face 
    font-family="TruchotteRegular"
    font-weight="400"
    font-stretch="normal"
    units-per-em="1000"
    panose-1="0 0 0 0 0 0 0 0 0 0"
    ascent="750"
    descent="-250"
    x-height="692"
    cap-height="903"
    bbox="-189 -319 843 1091.78"
    underline-thickness="50"
    underline-position="-50"
    unicode-range="U+0020-2022"
  />
<missing-glyph horiz-adv-x="419" 
 />
    <glyph glyph-name=".notdef" horiz-adv-x="419" 
 />
    <glyph glyph-name=".null" horiz-adv-x="0" 
 />
    <glyph glyph-name="nonmarkingreturn" horiz-adv-x="419" 
 />
    <glyph glyph-name="space" unicode=" " horiz-adv-x="419" 
 />
    <glyph glyph-name="space" unicode="&#xa0;" horiz-adv-x="419" 
 />
    <glyph glyph-name="exclam" unicode="!" horiz-adv-x="136" 
d="M68 83q12 0 20 -8t8 -20v-26q0 -12 -8 -20.5t-20 -8.5q-11 0 -19.5 8.5t-8.5 20.5v26q0 12 8.5 20t19.5 8zM40 909h56v-720h-56v720z" />
    <glyph glyph-name="quotedbl" unicode="&#x22;" horiz-adv-x="234" 
d="M40 905h57v-54v0v-80q0 -11 -8.5 -19.5t-20.5 -8.5q-11 0 -19.5 8.5t-8.5 19.5v80v1v53zM137 905h57v-54v0v-80q0 -11 -8.5 -19.5t-20.5 -8.5q-11 0 -19.5 8.5t-8.5 19.5v80v1v53z" />
    <glyph glyph-name="numbersign" unicode="#" horiz-adv-x="644" 
d="M518 535h86v-57h-100l-66 -263h84v-57h-98l-35 -138q-2 -10 -10 -16t-17 -6q-2 0 -3.5 0.5t-3.5 0.5q-11 3 -17 13t-4 21l32 125h-179l-34 -137q-2 -10 -10 -15.5t-18 -5.5q-4 0 -6 1q-12 3 -18 13t-3 21l31 123h-89v57h103l66 263h-87v57h101l35 140q3 11 13 17t21 4
q11 -3 17.5 -13t3.5 -21l-32 -127h179l34 139q3 11 13.5 17t21.5 3t17 -13t3 -21zM446 478h-179l-66 -263h179z" />
    <glyph glyph-name="ampersand" unicode="&#x26;" horiz-adv-x="563" 
d="M504 74l-78 78q-33 -75 -88 -113.5t-117 -38.5q-38 0 -72.5 14t-62.5 42q-31 30 -44 62.5t-12 62.5q0 30 8.5 54t19 41t19.5 27t9 11q14 14 43 33.5t62 40.5q-15 14 -27.5 26.5l-22.5 22.5q-26 26 -37.5 54t-11.5 54q0 25 7.5 46t16.5 36t16.5 23t8.5 9q1 0 9 7.5
t23 16.5t35.5 16.5t46.5 7.5q26 1 53.5 -10.5t53.5 -37.5t37.5 -54t11.5 -54t-7.5 -46.5t-16.5 -35t-16.5 -23t-8.5 -9.5q-12 -11 -34 -26.5t-48 -32.5q29 -29 59.5 -60t59.5 -60q6 33 6 72h56q0 -33 -4 -62.5t-11 -56.5l38.5 -38.5t31.5 -30.5l28 -28zM180 477
q24 -23 59 -59q29 19 52 34.5t31 24.5q2 2 5 6q2 3 5 7t6 9q7 11 12 24.5t4 27.5q0 15 -6 31.5t-26 36.5t-36.5 26t-30.5 6q-15 0 -28.5 -4.5t-24.5 -11.5q-5 -3 -9 -6t-7 -5q-4 -3 -6 -5q1 0 -4 -5t-12 -16q-6 -11 -11 -24.5t-5 -28.5t6.5 -31.5t25.5 -36.5zM221 56
q22 0 45.5 8t45.5 25t40.5 43.5t30.5 62.5l-152 152q-35 -23 -64.5 -42.5t-40.5 -30.5q-2 -3 -6 -7q-7 -9 -14 -20q-8 -13 -14 -30t-6 -36q0 -20 8 -40.5t32 -44.5q40 -40 95 -40z" />
    <glyph glyph-name="quotesingle" unicode="'" horiz-adv-x="156" 
d="M40 905h57v-54v0v-80q0 -11 -8.5 -19.5t-20.5 -8.5q-11 0 -19.5 8.5t-8.5 19.5v80v1v53z" />
    <glyph glyph-name="parenleft" unicode="(" horiz-adv-x="268" 
d="M40 722q0 34 8 61t22 47t31 34.5t35 22.5q35 17 62.5 20t29.5 3v-56h-5q-2 0 -6 -0.5t-9 -1.5q-10 -2 -22.5 -5.5t-24.5 -9.5q-12 -7 -24 -16t-21 -22t-14.5 -32t-5.5 -45v-533q1 0 1 -5.5t2 -15.5t5 -22t9 -25q7 -12 16 -23.5t22 -20.5t32 -14.5t45 -5.5v-57h-2
q-33 0 -59.5 8.5t-47 22t-34.5 30.5t-22 35q-9 18 -13.5 34t-6.5 29t-2.5 21t-0.5 9v533v0z" />
    <glyph glyph-name="parenright" unicode=")" horiz-adv-x="268" 
d="M205 815q9 -18 13.5 -34.5t6.5 -29t2.5 -20.5t0.5 -9v-533q0 -34 -8 -61t-21.5 -47.5t-30.5 -34.5t-35 -23t-34.5 -13.5t-29 -6.5t-20.5 -2.5t-9 -0.5v57h5q2 0 6 0.5t9 1.5q10 2 22.5 5t24.5 10t23.5 16t20.5 22t15 32t6 45v533v5q0 2 -0.5 6t-1.5 9q-2 10 -5.5 22.5
t-9.5 24.5q-7 13 -16 24.5t-22 20.5t-32 14.5t-45 5.5v56q34 0 61 -8t47 -21.5t34.5 -30.5t22.5 -35z" />
    <glyph glyph-name="asterisk" unicode="*" horiz-adv-x="391" 
d="M349 795q2 -6 2 -10q0 -6 -3 -12q-6 -11 -16 -14l-90 -31l57 -75q6 -8 6 -17q0 -3 -1 -4q-1 -11 -11 -19q-10 -6 -21 -5q-12 2 -18 11l-57 76l-55 -78q-8 -12 -23 -12q-8 0 -16 5q-12 9 -12 24q0 8 5 16l55 77l-91 28q-20 7 -20 27q0 2 2 8q3 11 13.5 16.5t21.5 2.5
l91 -28v95q0 12 8.5 20t19.5 8q12 0 20.5 -8t8.5 -20l-1 -94l89 30q12 5 22 -1q11 -5 14 -16z" />
    <glyph glyph-name="plus" unicode="+" horiz-adv-x="773" 
d="M705 374q12 0 20 -8t8 -20q0 -11 -8 -19.5t-20 -8.5h-296v-290q0 -12 -8.5 -20t-19.5 -8q-12 0 -20 8t-8 20v290h-285q-11 0 -19.5 8.5t-8.5 19.5q0 12 8.5 20t19.5 8h285v291q0 11 8 19.5t20 8.5q11 0 19.5 -8.5t8.5 -19.5v-291h296z" />
    <glyph glyph-name="comma" unicode="," horiz-adv-x="177" 
d="M80 0h57v-53h-1q0 -2 0.5 -2.5t0.5 -1.5q-1 -7 -3 -20t-10 -29q-9 -20 -32.5 -38t-60.5 -18h-2q-12 0 -20.5 8.5t-8.5 19.5q0 12 8.5 20.5t20.5 8.5q23 1 31 7.5t13 16.5t6.5 18.5t0.5 9.5v53z" />
    <glyph glyph-name="period" unicode="." horiz-adv-x="126" 
d="M58 0q-11 0 -19.5 8t-8.5 20v26q0 12 8.5 20t19.5 8q12 0 20 -8t8 -20v-26q0 -12 -8 -20t-20 -8z" />
    <glyph glyph-name="slash" unicode="/" horiz-adv-x="452" 
d="M393 904q11 -4 16 -14t2 -22l-317 -963q-5 -17 -22 -20q-7 -1 -13 1q-12 3 -16.5 13.5t-1.5 22.5l316 963q3 12 13.5 17t22.5 2z" />
    <glyph glyph-name="zero" unicode="0" horiz-adv-x="456" 
d="M228 696q34 0 61 -8t47 -21.5t34.5 -30.5t22.5 -35q9 -18 13.5 -34.5t7 -29t2.5 -20.5v-9v-320v-9t-2.5 -20.5t-7 -29t-13.5 -34.5q-8 -17 -22 -34t-34 -30.5t-46.5 -22t-59.5 -8.5h-3q-34 0 -61 8t-47 21.5t-34.5 30.5t-22.5 35q-9 18 -13.5 34.5t-6.5 29t-2.5 20.5
t-0.5 9v320q0 1 0.5 9t2.5 20.5t6.5 29t13.5 34.5q8 18 22.5 35t34.5 30.5t47 21.5t61 8zM113 575q-7 -13 -10 -24.5t-5 -21.5q-2 -11 -2 -21v-252l263 263q0 5 -1 10q-2 9 -5.5 21.5t-9.5 24.5q-7 13 -16 24.5t-22 20.5t-32 14.5t-45 5.5t-45 -5.5t-32 -14.5t-22 -20.5
t-16 -24.5zM343 121q6 12 9.5 24t5.5 22q2 11 2 21v252l-263 -263q1 -3 1 -9q2 -10 5.5 -22.5t9.5 -24.5q7 -12 16 -24t22 -21t32 -14.5t45 -5.5t45 5.5t32 14.5t22 21t16 24z" />
    <glyph glyph-name="one" unicode="1" horiz-adv-x="267" 
d="M209 693q18 -7 18 -26v-640q0 -12 -8.5 -20t-19.5 -8q-12 0 -20.5 8t-8.5 20v572l-112 -112h1q-9 -8 -20.5 -8t-19.5 8q-9 8 -9 20t9 20l160 160q14 14 30 6z" />
    <glyph glyph-name="two" unicode="2" horiz-adv-x="437" 
d="M151 303q-12 -7 -23.5 -16t-20.5 -22t-14.5 -32t-5.5 -45v-132h292q11 0 19.5 -8t8.5 -20t-8.5 -20t-19.5 -8h-320q-12 0 -20 8q-9 7 -9 20v160q0 34 8.5 61t22 47t30.5 34.5t35 22.5q18 9 34 13.5t29 6.5t21 2.5t9 0.5q26 0 45 5.5t32 14.5t22 21t15 24t9.5 24t5.5 22
q2 11 3 21q-1 0 -1 5t-2 15t-5 22.5t-10 24.5q-6 13 -15 24.5t-22 20.5t-32 14.5t-45 5.5t-45 -5.5t-32 -14.5t-22 -20.5t-16 -24.5t-10 -24.5t-5 -21.5q-2 -11 -2 -21q0 -12 -8.5 -20t-19.5 -8q-12 0 -20.5 8t-8.5 20q0 1 0.5 9t2.5 20.5t6.5 29t13.5 34.5t23 35t34.5 30.5
t47.5 21.5t61 8t61 -8t47 -21.5t34.5 -30.5t22.5 -35q9 -18 13.5 -34.5t6.5 -29t2.5 -20.5t0.5 -9t-0.5 -9t-2.5 -20.5t-6.5 -29t-13.5 -34.5q-8 -18 -22.5 -35t-34.5 -30.5t-47 -21.5t-61 -8h-6q-3 0 -6.5 -0.5t-8.5 -1.5q-22 -3 -47 -15z" />
    <glyph glyph-name="three" unicode="3" horiz-adv-x="437" 
d="M384 415q-9 -18 -23.5 -35.5t-36.5 -31.5q22 -14 37 -31.5t23 -35.5q9 -18 13.5 -34.5t6.5 -29t2.5 -20.5t0.5 -9t-0.5 -9t-2.5 -20.5t-6.5 -29t-13.5 -34.5q-8 -17 -22 -34t-34.5 -30.5t-47 -22t-59.5 -8.5h-2q-34 0 -61 8t-47.5 21.5t-34.5 30.5t-23 35t-13.5 34.5
t-6.5 29t-2 20.5v9q0 12 8 20t20 8q11 0 19.5 -8t8.5 -20v-5q0 -2 0.5 -6t1.5 -9q2 -10 5.5 -22.5t9.5 -24.5q7 -12 16 -24t22 -21t32 -14.5t45 -5.5t45 5.5t32 14.5t22 21t15 24t9.5 24t5.5 22q2 11 3 21q-1 0 -1 5t-2 15t-5 22.5t-10 24.5q-6 12 -15 23.5t-22 20.5t-32 15
t-45 6q-12 0 -20 8q-9 9 -9 20q0 9 6 17l3 3q8 8 18 8h2q26 0 45 5.5t32 14.5t22 21t15 24q13 25 15.5 46t1.5 21v5q0 2 -0.5 6t-1.5 9q-2 10 -5 22.5t-10 24.5q-6 13 -15 24.5t-22 20.5t-32 14.5t-45 5.5t-45 -5.5t-32 -14.5t-22 -20.5t-16 -24.5t-10 -24.5t-5 -21.5
q-2 -11 -2 -21q0 -12 -8.5 -20t-19.5 -8q-12 0 -20.5 8t-8.5 20q0 1 0.5 9t2.5 20.5t6.5 29t13.5 34.5t23 35t34.5 30.5t47.5 21.5t61 8t61 -8t47 -21.5t34.5 -30.5t22.5 -35q9 -18 13.5 -34.5t6.5 -29t2.5 -20.5t0.5 -9t-0.5 -9t-2.5 -20.5t-6.5 -29t-13.5 -34.5z" />
    <glyph glyph-name="four" unicode="4" horiz-adv-x="407" 
d="M369 216q11 0 19.5 -8.5t8.5 -19.5q0 -12 -8.5 -20t-19.5 -8h-52v-132q0 -12 -8.5 -20.5t-19.5 -8.5q-12 0 -20 8.5t-8 20.5v132h-212q-16 0 -24 13q-5 6 -5 13.5t3 13.5l241 481q4 8 12.5 12t18.5 2q22 -5 22 -27v-452h52zM261 216l-1 332l-166 -332h167z" />
    <glyph glyph-name="five" unicode="5" horiz-adv-x="447" 
d="M311 432q18 -9 35 -23t31 -34.5t22 -47.5t8 -61v-90q0 -3 -2 -9q-2 -13 -6 -32.5t-15 -40.5q-8 -18 -22.5 -35t-34.5 -30.5t-46.5 -22t-59.5 -8.5h-3q-34 0 -61 8t-47 22t-34.5 31t-22.5 35q-9 18 -13.5 34t-6.5 29t-2.5 20.5t-0.5 8.5q0 12 8.5 20.5t19.5 8.5
q12 0 20 -8.5t8 -20.5q1 0 1 -5t2 -15t5 -22t10 -25q6 -12 15 -23.5t22 -20.5t32 -14.5t45 -5.5t45 5.5t32 14.5t22 20.5t16 23.5q11 23 14 42t3 24v81q0 26 -5.5 45t-14.5 32t-20.5 22t-23.5 16q-25 12 -46 15q-11 2 -22 2h-160q-10 0 -20 8q-8 10 -8 20v241q0 11 8 19
q9 9 20 9h294q11 0 19.5 -8.5t8.5 -19.5q0 -12 -8.5 -20.5t-19.5 -8.5h-266v-183h132q1 0 9 -0.5t21 -2.5t29 -6.5t34 -13.5z" />
    <glyph glyph-name="six" unicode="6" horiz-adv-x="446" 
d="M321 353q18 -8 35 -22.5t30.5 -34.5t21.5 -47t8 -61t-8 -61t-21.5 -47t-30.5 -34.5t-35 -22.5q-18 -9 -34.5 -13.5t-29 -6.5t-20.5 -2.5t-9 -0.5h-2q-7 0 -33 3.5t-58 19.5q-18 8 -35 22.5t-30.5 34.5t-21.5 47t-8 61v320q0 1 0.5 9t2.5 20.5t6.5 29t13.5 34.5
q8 18 22.5 35t34.5 30.5t47 21.5t61 8t61 -8t47 -21.5t34.5 -30.5t22.5 -35q15 -30 19 -55.5t4 -34.5q2 -13 -8 -23q-8 -8 -20 -8t-20 8t-8 20v6q0 3 -0.5 6.5t-1.5 8.5q-3 22 -15 47q-7 12 -16 23.5t-22 20.5t-32 14.5t-45 5.5h-2q-51 -2 -75.5 -21t-37.5 -44
q-12 -25 -15 -46q-2 -11 -2 -21v-181q22 21 54.5 35.5t77.5 13.5q1 0 9 -0.5t20.5 -2.5t29 -6.5t34.5 -13.5zM295 73q13 7 24.5 16t20.5 22t14.5 32t5.5 45t-5.5 45t-14.5 32t-20.5 22t-24.5 16q-25 12 -46 15q-11 2 -21 2q-26 0 -45 -6t-32 -15t-22 -20.5t-16 -23.5
q-11 -22 -14 -41.5t-3 -24.5v-1q0 -26 5.5 -45t14.5 -32t21 -22t24 -16t24 -10t22 -5q11 -2 21 -2h5q2 0 6 0.5t9 1.5q10 2 22.5 5.5t24.5 9.5z" />
    <glyph glyph-name="seven" unicode="7" horiz-adv-x="417" 
d="M393 684q8 -13 1 -28l-140 -279h61q12 0 20.5 -8.5t8.5 -19.5q0 -12 -8.5 -20.5t-20.5 -8.5h-89l-153 -305q-8 -15 -25 -15q-6 0 -12 3q-11 5 -14.5 16t1.5 22l140 279h-61q-12 0 -20.5 8.5t-8.5 20.5q0 11 8.5 19.5t20.5 8.5h89l132 264h-275q-11 0 -19.5 8t-8.5 20
t8.5 20t19.5 8h321q16 0 24 -13z" />
    <glyph glyph-name="eight" unicode="8" horiz-adv-x="463" 
d="M330 377q46 -26 74.5 -72t28.5 -103q0 -42 -16 -79t-43 -64t-63.5 -43t-78.5 -16t-79 16t-64 43t-43 64t-16 79q0 57 28.5 103t75.5 72q-35 23 -56 61t-21 84q0 36 13.5 68t37.5 55.5t56 37.5t68 14t67.5 -14t55.5 -37.5t37.5 -55.5t13.5 -68q0 -46 -20.5 -84t-55.5 -61z
M113 522q0 -25 9.5 -46.5t25.5 -37.5t37.5 -25.5t45.5 -9.5h1q24 0 45.5 9.5t37.5 25.5t25.5 37.5t9.5 46.5q0 24 -9.5 45.5t-25.5 37.5t-37.5 25.5t-45.5 9.5q-25 0 -46.5 -9.5t-37.5 -25.5t-25.5 -37.5t-9.5 -45.5zM232 56q30 0 56.5 11.5t46 31.5t31 46.5t11.5 56.5
t-11.5 56.5t-31 46t-46 31t-56.5 11.5h-1q-30 0 -56.5 -11.5t-46 -31t-31 -46t-11.5 -56.5t11.5 -56.5t31.5 -46.5t46.5 -31.5t56.5 -11.5z" />
    <glyph glyph-name="nine" unicode="9" horiz-adv-x="447" 
d="M311 673q18 -8 35 -22.5t31 -34.5t22 -47t8 -61v-320q0 -1 -0.5 -9t-2.5 -20.5t-6.5 -29t-13.5 -34.5q-9 -17 -23 -34t-34 -30.5t-46.5 -22t-59.5 -8.5h-3q-34 0 -61 8t-47 21.5t-34.5 30.5t-22.5 35q-15 30 -18.5 55t-4.5 34v4q0 12 8 20q10 8 20 8q7 0 13 -3q4 -2 6 -4
l1 -1q6 -6 7 -11q1 -3 1 -9q1 0 1 -5.5t2 -14.5q2 -11 5 -23t9 -25q7 -12 16 -23t22 -20t31 -14.5t44 -6.5h2q26 0 45 5.5t32 14.5t22 21t16 24q6 12 9.5 24t5.5 22q2 11 2 21v181q-22 -21 -54.5 -35.5t-77.5 -13.5q-2 0 -29.5 3t-62.5 20q-18 8 -35 22.5t-31 34.5t-22 47
t-8 61t8 61t22 47t31 34.5t35 22.5q30 15 55.5 19t33.5 4h3h9t21 -2.5t29 -7t34 -13.5zM350 508q0 26 -5.5 45t-14.5 32t-20.5 22t-23.5 16q-22 11 -41 14t-25 3h-2h-5q-2 0 -6 -0.5t-9 -1.5q-10 -2 -22.5 -5.5t-24.5 -9.5q-12 -7 -24 -16t-21 -22t-14.5 -32t-5.5 -45
t5.5 -45t14.5 -32t21 -22t24 -16t24 -10t22 -5q11 -2 21 -2q26 0 45 5.5t32 14.5t22 21t16 24q11 20 13.5 37.5t3.5 25.5v4z" />
    <glyph glyph-name="colon" unicode=":" horiz-adv-x="136" 
d="M68 84q11 0 19.5 -8.5t8.5 -20.5v-26q0 -12 -8.5 -20.5t-19.5 -8.5q-12 0 -20 8.5t-8 20.5v26q0 12 8 20.5t20 8.5zM68 697q11 0 19.5 -8.5t8.5 -19.5v-27q0 -12 -8.5 -20t-19.5 -8q-12 0 -20 8t-8 20v27q0 11 8 19.5t20 8.5z" />
    <glyph glyph-name="semicolon" unicode=";" horiz-adv-x="177" 
d="M109 697q11 0 19.5 -8.5t8.5 -19.5v-27q0 -12 -8.5 -20t-19.5 -8q-12 0 -20.5 8t-8.5 20v27q0 11 8.5 19.5t20.5 8.5zM80 0h57v-53h-1q0 -2 0.5 -2.5t0.5 -1.5q-1 -7 -3 -20t-10 -29q-9 -20 -32.5 -38t-60.5 -18h-2q-12 0 -20.5 8.5t-8.5 19.5q0 12 8.5 20.5t20.5 8.5
q23 1 31 7.5t13 16.5t6.5 18.5t0.5 9.5v53z" />
    <glyph glyph-name="less" unicode="&#x3c;" horiz-adv-x="327" 
d="M259 204q8 -8 8 -19.5t-8 -19.5q-9 -9 -20 -9q-13 0 -20 9l-180 180l180 180q8 8 20 8t20 -8t8 -20t-8 -20l-140 -140z" />
    <glyph glyph-name="equal" unicode="=" horiz-adv-x="508" 
d="M440 275q11 0 19.5 -8t8.5 -20q0 -11 -8.5 -19.5t-19.5 -8.5h-372q-11 0 -19.5 8.5t-8.5 19.5q0 12 8.5 20t19.5 8h372zM68 416q-11 0 -19.5 8.5t-8.5 19.5q0 12 8.5 20t19.5 8h372q11 0 19.5 -8t8.5 -20q0 -11 -8.5 -19.5t-19.5 -8.5h-372z" />
    <glyph glyph-name="greater" unicode="&#x3e;" horiz-adv-x="328" 
d="M108 165q-8 -9 -20 -9q-11 0 -20 9q-8 8 -8 20t8 20l140 140l-140 140q-8 8 -8 20t8 20t20 8t20 -8l180 -180z" />
    <glyph glyph-name="question" unicode="?" horiz-adv-x="562" 
d="M253 188v237v2q0 2 1 17.5t12 35.5q9 20 33 38t62 17q40 1 59 19t31 44q5 12 8 24t5 22q2 11 2 22l-1 54q0 26 -5.5 45t-14.5 32t-20.5 22t-23.5 15q-22 11 -41.5 14t-24.5 3h-1q-3 0 -5 1q1 -1 4 -1h-105q-26 0 -45 -5.5t-32 -14.5t-22 -20.5t-16 -23.5
q-11 -22 -14 -41.5t-3 -24.5v-1v-54h-56v51v3q0 1 0.5 8.5t2.5 20.5t6.5 29t13.5 34q8 18 22.5 35t34.5 30.5t47 21.5t61 8h106h2q7 0 33 -3.5t57 -18.5q18 -9 35 -23t31 -34.5t22 -47t8 -60.5v-54q0 -1 -2.5 -28t-16.5 -62q-7 -17 -19 -34.5t-29.5 -31.5t-40.5 -22.5
t-53 -8.5q-23 -1 -31 -8t-14 -17q-4 -7 -5.5 -13.5t-1.5 -10.5v-242h-56zM316 858h-1h1v0zM315 859h-1h1zM333 851h1h-1zM253 28v27q0 11 8 19.5t20 8.5q11 0 19.5 -8.5t8.5 -19.5v-27q0 -11 -8.5 -19.5t-19.5 -8.5q-12 0 -20 8.5t-8 19.5z" />
    <glyph glyph-name="at" unicode="@" horiz-adv-x="774" 
d="M708 492q14 -36 20 -71.5t6 -67.5t-4 -58.5t-9 -46.5t-9 -32t-5 -14q-1 0 -7 -10.5t-18.5 -23t-32 -23.5t-47.5 -12t-47 13t-25 30q-6 11 -7.5 20t-2.5 14q-21 -21 -53 -35.5t-76 -14.5h-3q-34 0 -61 8t-47 22t-34.5 31t-22.5 35q-9 18 -13.5 34t-6.5 29t-2.5 21t-0.5 9
t0.5 8.5t2.5 20.5t6.5 29t13.5 34q8 18 22.5 35t34.5 31t47 22t61 8q45 1 77.5 -13.5t54.5 -36.5v22q0 11 8.5 19.5t19.5 8.5q12 0 20.5 -8.5t8.5 -19.5v-294q0 -1 0.5 -5t2.5 -9q4 -5 6.5 -7.5t15.5 -3.5q12 0 22 5t18 13q13 15 13 18q0 1 3.5 10.5t7.5 26.5t7.5 40t3.5 50
q0 28 -4.5 58t-16.5 60q1 0 -14 26q-8 11 -19 26.5t-28 32.5q-16 16 -36.5 31t-46 27t-56.5 19.5t-68 7.5q-74 0 -128.5 -29t-90.5 -72t-54.5 -94.5t-18.5 -96.5q0 -46 17.5 -97t53 -94.5t90 -72t129.5 -28.5h3q38 0 64.5 3t43 6.5t24.5 7t10 4.5h1q9 7 20 5t18 -11
q8 -9 6.5 -20.5t-10.5 -18.5q-3 -2 -12.5 -7.5t-30 -11t-53.5 -10t-82 -4.5q-59 0 -108 16t-88 42.5t-67.5 61.5t-47 74t-28 78.5t-9.5 76.5q0 54 21 114.5t64 112t107 85.5t151 36h2h3q59 0 105 -15t81.5 -37.5t61 -49t41.5 -49t23.5 -38t7.5 -16.5zM392 641q2 0 5 0.5
t4.5 0.5t0 0t-9.5 -1zM503 281q11 23 14 43t3 24v2v5.5t-2 13.5q-3 22 -15 47q-7 12 -16 23.5t-22 20.5t-32 14.5t-45 6.5q-26 -1 -45 -6.5t-32 -14.5t-22 -20.5t-16 -23.5q-7 -13 -10 -24.5t-5 -21.5q-2 -11 -2 -21v-6q0 -3 0.5 -6.5t1.5 -8.5q2 -10 5.5 -22t9.5 -25
q7 -12 16 -23.5t22 -20.5t32 -14.5t45 -5.5t45 5.5t32 14.5t22 20.5t16 23.5z" />
    <glyph glyph-name="A" unicode="A" horiz-adv-x="635" 
d="M318 904q20 0 27 -20l270 -884h-59l-64 211h-348l-64 -211h-59l270 884q7 20 27 20zM194 373h248l-124 407zM475 267l-16 50h-282l-16 -50h314z" />
    <glyph glyph-name="B" unicode="B" horiz-adv-x="614" 
d="M479 511q18 -8 35 -22.5t30.5 -34.5t21.5 -47t8 -61v-159q0 -1 -0.5 -8.5t-2.5 -20.5t-6.5 -29t-13.5 -34q-8 -17 -22 -34t-34 -30.5t-46.5 -22t-59.5 -8.5h-2h-319q-10 0 -20 8q-8 8 -8 20v849q0 12 8 20q9 9 20 9h239q1 0 9 -0.5t21 -2.5t29 -6.5t33 -13.5
q18 -8 35 -22.5t31 -34.5t22 -47t8 -61v-53q0 -1 -0.5 -9t-2.5 -20.5t-6.5 -29t-13.5 -33.5q-13 -26 -34 -47q20 -5 41 -15zM96 534h211q26 0 45 5.5t32 14.5t22 20.5t16 23.5q12 25 14.5 46t1.5 21v53q0 26 -5.5 45t-14.5 32t-20.5 22t-23.5 15q-25 12 -46 15q-11 2 -21 2
h-211v-315zM518 346q0 26 -5.5 45t-14.5 32t-20.5 22t-23.5 16q-25 12 -46 15q-11 2 -21 2h-76h-4h-179h-32v-422h291q26 0 45 5.5t32 14.5t22 20.5t15 23.5t9.5 24t5.5 22q2 11 2 21v159z" />
    <glyph glyph-name="C" unicode="C" horiz-adv-x="614" 
d="M116 785q-7 -13 -11 -25t-6 -21.5t-2.5 -15l-0.5 -5.5v-531q0 -26 5.5 -44.5t14.5 -32t20.5 -22t23.5 -15.5t24 -10t22 -5q11 -2 21 -2h160h5q2 0 6 0.5t9 1.5q22 3 47 15q12 7 23.5 15.5t20.5 22t14.5 32t5.5 44.5h56q0 -33 -8 -60t-21.5 -47t-30.5 -34.5t-35 -22.5
q-18 -9 -34 -13.5t-29 -6.5t-20.5 -2.5t-8.5 -0.5h-160q-1 0 -8.5 0.5t-20.5 2.5t-29 6.5t-34 13.5q-18 8 -35 22.5t-30.5 34.5t-21.5 47t-8 60v532q0 1 0.5 9t3.5 21t8 29t14 33t23 34t34 30.5t46 22t58 8.5h160q1 0 8.5 -0.5t20.5 -2.5t29 -6.5t34 -13.5q18 -8 35 -22.5
t30.5 -34.5t21.5 -47t8 -61h-56q0 26 -5.5 45t-14.5 32t-20.5 22t-23.5 15q-25 13 -46 15.5t-21 1.5h-160q-49 0 -73 -19.5t-38 -44.5z" />
    <glyph glyph-name="D" unicode="D" horiz-adv-x="614" 
d="M551 810q17 -35 20 -62.5t3 -29.5v-531q0 -33 -8 -60t-21.5 -47t-30.5 -34.5t-35 -22.5q-18 -9 -34 -13.5t-29 -7t-20.5 -2.5h-8.5h-319q-12 0 -20 8t-8 20v849q0 12 8 20t20 8h319q33 0 60 -8t47 -21.5t34.5 -30.5t22.5 -35zM518 718v5q0 2 -0.5 6t-1.5 9
q-2 10 -5.5 22.5t-9.5 24.5q-7 12 -16 23.5t-22 20.5t-31.5 14.5t-44.5 5.5h-291v-793h291h5q2 0 6 0.5t9 1.5q10 2 22 5t25 10q12 6 23.5 15t20.5 22t14.5 32t5.5 45v531z" />
    <glyph glyph-name="E" unicode="E" horiz-adv-x="612" 
d="M48 897q7 9 20 9h504v-1v-56h-476v-315h397v-56h-397v-422h476v-56h-504q-12 0 -20 8t-8 20v849q0 12 8 20z" />
    <glyph glyph-name="F" unicode="F" horiz-adv-x="593" 
d="M48 896q10 8 20 8h505v-56h-477v-316h397v-56h-397v-476h-56v876q0 12 8 20z" />
    <glyph glyph-name="G" unicode="G" horiz-adv-x="614" 
d="M116 785q-7 -13 -11 -25t-6 -21.5t-2.5 -15l-0.5 -5.5v-531q0 -26 5.5 -44.5t14.5 -32t20.5 -22t23.5 -15.5q25 -13 46 -15t22 -2h159h5q2 0 6 0.5t9 1.5q22 3 47 15q12 7 23.5 15.5t20.5 22t14.5 32t5.5 44.5v291h-211v56h239q12 0 20 -9q8 -8 8 -19v-319
q0 -34 -8 -60.5t-21.5 -47t-30.5 -34.5t-35 -22q-18 -9 -34 -13.5t-29 -6.5t-20.5 -2.5t-8.5 -0.5h-159q-1 0 -9 0.5t-21 2.5t-29 6.5t-34 13.5q-18 8 -35 22t-30.5 34.5t-21.5 47t-8 60.5v532q0 1 0.5 9t3.5 21t8 29t14 33t23 34t34 30.5t46 21.5t59 8h159h8.5t20.5 -2
t29 -6.5t34 -13.5t35 -23t30.5 -34.5t21.5 -47t8 -60.5h-56q0 26 -5.5 45t-14.5 32t-20.5 22t-23.5 15q-25 12 -46 15q-11 2 -21 2h-159q-50 -1 -74 -20t-38 -44z" />
    <glyph glyph-name="H" unicode="H" horiz-adv-x="614" 
d="M518 532v371h56v-903h-56v476h-422v-476h-56v902h56v-370h422v0z" />
    <glyph glyph-name="I" unicode="I" horiz-adv-x="136" 
d="M40 0v903h56v-903h-56v0z" />
    <glyph glyph-name="J" unicode="J" horiz-adv-x="534" 
d="M438 904h56v-717q0 -1 -0.5 -8.5t-2.5 -20.5t-6.5 -29t-13.5 -34q-8 -17 -22 -34t-34 -30.5t-46.5 -22t-59.5 -8.5h-2h-106q-1 0 -8 0.5t-18.5 2.5t-25.5 7t-29 14t-30 23t-26 34.5t-17.5 46.5t-6.5 59h56q1 -54 17 -78.5t36 -36.5q10 -6 19 -9t17 -5q9 -2 16 -2h106
q26 0 45 5.5t32 14.5t22 20.5t15 23.5t9.5 24t5.5 22q2 11 2 21v717z" />
    <glyph glyph-name="K" unicode="K" horiz-adv-x="561" 
d="M495 561q-8 -16 -21.5 -30.5t-32.5 -26.5q19 -11 32.5 -25.5t21.5 -30.5q18 -33 22 -61.5t4 -38.5v-3v-345h-56v345v3q-1 7 -3.5 28t-14.5 43t-38.5 39.5t-74.5 17.5h-1h-132h-105v-476h-56v903h56v-371h131l106 1q49 0 75 17t38.5 39.5t15 43t3.5 28.5v3v239h56v-239v-3
q0 -10 -3.5 -38.5t-22.5 -61.5z" />
    <glyph glyph-name="L" unicode="L" horiz-adv-x="593" 
d="M113 120q7 -12 16 -23.5t22 -20.5t31.5 -14.5t44.5 -5.5h346v-56h-346q-33 0 -60 8t-47 21.5t-34.5 31t-22.5 34.5q-9 18 -13.5 34t-6.5 29t-2.5 21t-0.5 9v716h56v-716v-6q0 -3 0.5 -6.5t1.5 -8.5q2 -10 5.5 -22t9.5 -25z" />
    <glyph glyph-name="M" unicode="M" horiz-adv-x="667" 
d="M608 903q19 -7 19 -27v-876h-56v788l-215 -300q-9 -12 -22 -12q-14 0 -23 12l-215 300v-788h-56v876q0 20 19 27q9 2 18 -0.5t14 -10.5l243 -339l242 339q5 8 14 10.5t18 0.5z" />
    <glyph glyph-name="N" unicode="N" horiz-adv-x="667" 
d="M571 906h56v-878q0 -20 -20 -27q-20 -5 -32 12l-479 767v-752v-28h-56v878q0 20 20 27q20 5 32 -12l479 -767v780z" />
    <glyph glyph-name="O" unicode="O" horiz-adv-x="614" 
d="M479 883q17 -9 34.5 -23t31 -34.5t21.5 -47t8 -60.5v-531q0 -34 -8 -60.5t-21.5 -47t-31 -34.5t-34.5 -22q-18 -9 -34 -13.5t-29 -7t-21 -2.5h-9h-159q-2 0 -29.5 2.5t-62.5 20.5q-18 8 -35 22t-30.5 34.5t-21.5 47t-8 60.5v532q0 1 0.5 9t3 21t7.5 29t14 33t23 34
t34 30.5t46 21.5t59 8h159h9t21 -2t29 -6.5t34 -13.5zM518 718q0 26 -6 45t-15 32t-20.5 22t-23.5 15q-25 12 -46 15q-11 2 -21 2h-159q-49 -1 -73.5 -20t-38.5 -44q-6 -13 -10 -25t-6 -21.5t-2.5 -15l-0.5 -5.5v-531q0 -26 5.5 -45t14.5 -32t20.5 -22t23.5 -15
q12 -7 24 -10t22 -5q11 -2 21 -2h159h6q3 0 6.5 0.5t8.5 1.5q10 2 22 5t24 10q12 6 23.5 15t20.5 22t15 32t6 45v531z" />
    <glyph glyph-name="P" unicode="P" horiz-adv-x="614" 
d="M479 881q17 -8 34.5 -22.5t31 -34.5t21.5 -47t8 -61v-53q0 -1 -0.5 -8.5t-2.5 -20.5t-6.5 -29t-13.5 -34q-8 -17 -22 -34t-34 -30.5t-46.5 -22t-59.5 -8.5h-3h-290v-476h-56v876q0 10 8 20q8 8 20 8h318q1 0 9 -0.5t21 -2.5t29 -6.5t34 -13.5zM501 596q6 12 9 24t5 22
q2 11 2 21v53q0 26 -5.5 45t-14.5 32t-20.5 22t-23.5 16q-25 12 -46 15q-11 2 -21 2h-290v-316h290q26 0 45 5.5t32 14.5t22 20.5t16 23.5z" />
    <glyph glyph-name="Q" unicode="Q" horiz-adv-x="615" 
d="M479 882q18 -8 35 -22t30.5 -34.5t22 -47t8.5 -60.5v-531q0 -31 -7 -56t-19 -44.5t-27 -34t-31 -23.5l28 -71l-52 -20l-28 69q-21 -5 -35.5 -6t-16.5 -1h-159h-9t-21 2t-29 6.5t-33 13.5q-18 9 -35 23t-31 34.5t-22 47t-8 60.5v532q0 1 1 8.5t3.5 20.5t7.5 29t14 34
q9 17 23 34t34 30.5t46 21.5t59 8h159q2 0 29.5 -2.5t62.5 -20.5zM518 718q0 26 -5.5 44.5t-14.5 32t-20.5 22t-23.5 15.5q-25 12 -46 15q-11 2 -21 2h-159q-25 0 -43 -5.5t-31 -14.5t-22 -20.5t-16 -23.5q-14 -26 -17 -47t-2 -20v-531q0 -26 5.5 -45t14.5 -32t20.5 -22
t23.5 -15q12 -7 24 -10t22 -5q11 -2 21 -2h159h5q2 0 6 0.5t9 1.5q5 0 11 2l-57 143l52 21l57 -142q20 14 33.5 37.5t14.5 67.5v531z" />
    <glyph glyph-name="R" unicode="R" horiz-adv-x="614" 
d="M496 507q15 -9 29 -23.5t25 -34.5t17.5 -46t6.5 -58v-345h-56v345q-1 54 -17 78.5t-36 37.5q-20 11 -35.5 13.5t-16.5 2.5h-22q-1 0 -1 -0.5t-1 -0.5h-2q-53 0 -103 0.5t-93 0.5h-44h-28.5t-22.5 -1v-476h-56v876q0 12 8 20q10 8 20 8h319h8.5t20.5 -2t29 -6.5t34 -13.5
t35 -23t30.5 -34.5t21.5 -47t8 -60.5v-53q0 -2 -2.5 -29.5t-20.5 -62.5q-8 -17 -21.5 -34t-33.5 -31zM96 848v-315h291q26 0 44.5 5.5t32 14.5t22 20.5t15.5 23.5q6 12 9.5 24t5.5 22q2 11 2 21v53q0 26 -5.5 45t-14.5 32t-20.5 22t-23.5 15q-25 12 -46 15q-11 2 -21 2h-291
z" />
    <glyph glyph-name="S" unicode="S" horiz-adv-x="534" 
d="M135 23q-18 8 -35 22.5t-30.5 34.5t-21.5 47t-8 60h56q0 -26 5.5 -44.5t14.5 -32t20.5 -22t23.5 -15.5t24 -10t22 -5q11 -2 21 -2h80q26 0 45 5.5t32 14.5t22 20.5t15 23.5t9.5 24t5.5 22q2 11 2 21v159q0 26 -5.5 45t-14.5 32t-20.5 22t-23.5 16q-13 6 -24.5 9t-21.5 5
q-11 2 -21 3h-80q-33 0 -60 8t-47 21.5t-34.5 30.5t-22.5 35q-17 35 -20 62.5t-3 29.5v53q0 34 8 60.5t21.5 47t30.5 34.5t35 23t34 13.5t29 6.5t20.5 2.5t8.5 0.5h80q34 0 60.5 -8t47 -22t34.5 -31t23 -35q17 -35 19.5 -62.5t2.5 -29.5v-53h-56v53v5q0 2 -0.5 6t-1.5 9
q-2 10 -5 22.5t-10 24.5q-6 12 -15 23.5t-22 20.5t-32 14.5t-45 5.5h-80h-5q-2 0 -6 -0.5t-9 -1.5q-10 -2 -22 -5t-25 -10q-12 -6 -23.5 -15t-20.5 -22t-14.5 -32t-5.5 -45v-53v-5q0 -2 0.5 -6t1.5 -9q3 -22 15 -47q7 -12 16 -23.5t22 -20.5t31.5 -14.5t44.5 -5.5h80
q2 0 29.5 -3t62.5 -20q18 -8 35 -22.5t30.5 -34.5t21.5 -47t8 -61v-159v-8.5t-2.5 -20.5t-7 -29t-13.5 -34q-8 -18 -22 -35t-34.5 -30.5t-47 -21.5t-60.5 -8h-80q-1 0 -8.5 0.5t-20.5 2.5t-29 6.5t-34 13.5z" />
    <glyph glyph-name="T" unicode="T" horiz-adv-x="571" 
d="M20 904h266h265v-56h-237v-848h-56v848h-238v56v0z" />
    <glyph glyph-name="U" unicode="U" horiz-adv-x="614" 
d="M518 904h56v-716q0 -34 -8 -61t-21.5 -47t-30.5 -34.5t-35 -22.5q-18 -9 -34 -13.5t-29 -6.5t-20.5 -2.5t-8.5 -0.5h-160q-1 0 -8.5 0.5t-20.5 2.5t-29 6.5t-34 13.5q-18 8 -35 22.5t-30.5 34.5t-21.5 47t-8 61v716h56v-716q0 -26 5.5 -45t14.5 -32t20.5 -22t23.5 -16
q12 -6 24 -9.5t22 -5.5q11 -2 21 -2h160q0 -1 20 2q10 2 22 5.5t25 9.5q12 7 23.5 16t20.5 22t14.5 32t5.5 45v716z" />
    <glyph glyph-name="V" unicode="V" horiz-adv-x="634" 
d="M555 904h59l-270 -884q-7 -20 -27 -20t-27 20l-270 884h59l238 -780z" />
    <glyph glyph-name="W" unicode="W" horiz-adv-x="863" 
d="M784 904h59l-270 -884q-7 -20 -27 -20t-27 20l-88 286l-87 -286q-7 -20 -27 -20t-27 20l-270 884h59l238 -780l85 278l-80 263h59l50 -166l51 166h59l-80 -263l85 -278z" />
    <glyph glyph-name="X" unicode="X" horiz-adv-x="620" 
d="M536 903h64l-258 -452l258 -451h-64l-226 395l-226 -395h-64l258 451l-258 452h65l225 -395l226 395v0z" />
    <glyph glyph-name="Y" unicode="Y" horiz-adv-x="621" 
d="M310 508l226 395h65l-516 -903h-65l258 451l-258 452h65l225 -395v0z" />
    <glyph glyph-name="Z" unicode="Z" horiz-adv-x="598" 
d="M114 56h457v-56h-505q-16 0 -24 14q-8 13 0 28l245 436h-115v56h147l178 315h-457v57h505q15 0 24 -14q8 -15 0 -28l-186 -330h135v-56h-166z" />
    <glyph glyph-name="a" unicode="a" horiz-adv-x="508" 
d="M225 212q-33 0 -59.5 8.5t-46.5 22t-34 30.5t-22 35q-17 35 -20 62.5t-3 29.5q0 1 0.5 8.5t2.5 20.5t6.5 29t13.5 34q8 18 22.5 35t34.5 30.5t47 21.5t61 8h184v131v6q0 3 -0.5 6.5t-1.5 8.5q-2 10 -5.5 22t-9.5 24q-7 12 -16 23.5t-22 20.5t-31.5 15t-44.5 6t-45 -6
t-32 -15t-22 -20.5t-16 -23.5q-12 -25 -14.5 -45.5t-2.5 -21.5q0 -11 -8 -19.5t-20 -8.5q-11 0 -19.5 8.5t-8.5 19.5q0 1 0.5 9t2.5 21t6.5 29t13.5 34q8 17 22.5 34.5t34.5 31t47 21.5t61 8q33 0 60 -8t47 -21.5t34.5 -31t22.5 -34.5q9 -18 13.5 -34t6.5 -29t2.5 -21
t0.5 -9v-159v-319q0 -11 -8 -19q-9 -9 -20 -9h-212h-3zM113 467q-7 -13 -10 -24.5t-5 -21.5q-2 -11 -2 -21v-6q0 -3 0.5 -6.5t1.5 -8.5q2 -9 5.5 -21.5t9.5 -24.5q7 -12 16 -23.5t22 -20.5t32 -14.5t45 -5.5h184v262h-184q-26 0 -45 -5.5t-32 -14.5t-22 -20.5t-16 -23.5z
M440 56q11 0 19.5 -8t8.5 -20q0 -11 -8.5 -19.5t-19.5 -8.5h-372q-11 0 -19.5 8.5t-8.5 19.5q0 12 8.5 20t19.5 8h372zM68 106q-11 0 -19.5 8.5t-8.5 19.5q0 12 8.5 20t19.5 8h372q11 0 19.5 -8t8.5 -20q0 -11 -8.5 -19.5t-19.5 -8.5h-372z" />
    <glyph glyph-name="b" unicode="b" 
d="M227 693q34 0 61 -8t47 -21.5t34.5 -30.5t22.5 -35q9 -18 13.5 -34t6.5 -29t2.5 -20.5t0.5 -8.5v-319q0 -1 -0.5 -8.5t-2.5 -20.5t-6.5 -29t-13.5 -34q-8 -17 -22 -34t-34 -30.5t-46.5 -22t-59.5 -8.5h-3q-45 -1 -77 13t-54 35v-20q0 -12 -8 -20t-20 -8q-11 0 -19.5 8
t-8.5 20v849q0 12 8.5 20t19.5 8q12 0 20 -8t8 -20v-184h19h112zM359 506q1 0 -2 20q-2 10 -5.5 22t-9.5 25q-7 12 -16 23.5t-22 20.5t-32 14.5t-45 5.5h-112h-19v-450q1 -2 1 -7t1 -13q2 -10 5.5 -22t9.5 -25q7 -12 16 -23.5t22 -20.5t31.5 -14.5t44.5 -5.5t45 5.5t32 14.5
t22 20.5t16 23.5q6 12 9 24t5 22q2 11 3 21v319z" />
    <glyph glyph-name="c" unicode="c" 
d="M227 694q64 0 104 -26t58 -59q18 -32 22 -60.5t4 -39.5v-4q-1 -11 -9.5 -19t-19.5 -8q-12 0 -20 8.5t-7 20.5v2q0 7 -3 28.5t-16 44.5q-7 10 -15.5 20t-21.5 17.5t-31.5 12.5t-44.5 5q-51 -1 -75 -17.5t-37 -37.5q-13 -23 -16 -44.5t-3 -28.5v-3v-317v-6q0 -6 3 -15
q2 -10 6 -22t11 -25q14 -26 38 -45t73 -20q49 1 73.5 20t38.5 45q7 12 11 24t6 22q3 11 3 22t8.5 19t20.5 8q11 -1 19 -9.5t8 -20.5q-1 -2 -4.5 -29t-21.5 -62q-9 -17 -23 -34t-33.5 -30.5t-45.5 -22t-58 -8.5h-2q-32 0 -58 8t-46 21.5t-34 31t-23 34.5q-18 35 -22 62.5
t-4 30.5v315v6q0 10 3.5 39t22.5 61q18 33 57.5 59t103.5 26z" />
    <glyph glyph-name="d" unicode="d" 
d="M387 905q11 0 19.5 -8t8.5 -20v-849q0 -12 -8.5 -20t-19.5 -8q-12 0 -20 8t-8 20v20q-22 -20 -53.5 -34t-75.5 -14h-3q-33 0 -60 8t-47 21.5t-34.5 30.5t-22.5 35q-9 18 -13.5 34t-6.5 29t-2.5 20.5t-0.5 8.5v319q0 1 0.5 8.5t2.5 20.5t6.5 29t13.5 34q8 18 22.5 35
t34.5 30.5t47 21.5t60 8h113h19v184q0 12 8 20t20 8zM359 637h-19h-113q-26 0 -44.5 -5.5t-31.5 -14.5t-22 -20.5t-16 -23.5q-7 -13 -10 -24.5t-5 -21.5q-2 -11 -2 -21v-319v-5q0 -2 0.5 -6t1.5 -9q2 -10 5.5 -22t9.5 -25q7 -12 16 -23.5t22 -20.5t31.5 -14.5t44.5 -5.5
t45 5.5t32 14.5t22 20.5t16 23.5q6 12 9 24t5 22q2 11 3 21v450z" />
    <glyph glyph-name="e" unicode="e" 
d="M97 318v-131v-5q0 -2 0.5 -6t1.5 -9q2 -10 5 -22.5t9 -24.5q7 -12 16 -23.5t22 -20.5t32 -14.5t45 -5.5t44.5 5.5t31.5 14.5t22 20.5t16 23.5q6 12 9.5 24t5.5 22q2 11 2 21q0 11 8 19.5t20 8.5q11 0 19.5 -8.5t8.5 -19.5q0 -2 -3 -29.5t-20 -62.5q-8 -17 -22 -34
t-34 -30.5t-46.5 -22t-59.5 -8.5h-2q-34 0 -61 8t-47 21.5t-34.5 30.5t-22.5 35q-9 17 -13.5 33.5t-6.5 29t-2.5 20.5t-0.5 9v159v159q0 1 0.5 9t2.5 21t6.5 29t13.5 34q8 17 22.5 34.5t34.5 31t47 21.5t61 8q33 0 60 -8t47 -21.5t34.5 -31t22.5 -34.5q9 -18 13.5 -34
t6.5 -29t2.5 -21t0.5 -9t-0.5 -8.5t-2.5 -20.5t-6.5 -29t-13.5 -34q-8 -17 -22.5 -34.5t-34.5 -31t-47 -21.5t-60 -8h-131zM97 374h131q26 0 44.5 5.5t31.5 14.5t22 21t16 24q6 12 9.5 24t5.5 21q2 11 2 21v6t-2 15q-3 22 -15 47q-7 12 -16 23.5t-22 20.5t-31.5 14.5
t-44.5 5.5t-45 -5.5t-32 -14.5t-22 -20.5t-16 -23.5q-12 -25 -14.5 -46t-1.5 -22v-131z" />
    <glyph glyph-name="f" unicode="f" horiz-adv-x="468" 
d="M281 853q33 0 60 -8t47 -22t34.5 -31t22.5 -35q9 -17 13.5 -33t6.5 -29t2.5 -21t0.5 -9q0 -11 -8.5 -19.5t-19.5 -8.5q-12 0 -20 8.5t-8 19.5v6q0 3 -0.5 6.5t-1.5 8.5q-2 9 -5.5 21.5t-9.5 24.5q-7 12 -16 23.5t-22 20.5t-31.5 14.5t-44.5 5.5t-45 -5.5t-32 -14.5
t-22 -20.5t-16 -23.5q-12 -25 -15 -46q-2 -11 -2 -21v-290h132q11 0 19.5 -8.5t8.5 -19.5q0 -12 -8.5 -20t-19.5 -8h-132v-291q0 -11 -8 -19.5t-20 -8.5q-11 0 -19.5 8.5t-8.5 19.5v291h-25q-11 0 -19.5 8t-8.5 20q0 11 8.5 19.5t19.5 8.5h25v290q0 1 0.5 9t2.5 21t6.5 29
t13.5 33q8 18 22.5 35t34.5 31t47 22t61 8z" />
    <glyph glyph-name="g" unicode="g" 
d="M406 685q4 -3 6 -9q2 -3 2 -11v-796q0 -2 -2.5 -29.5t-19.5 -62.5q-8 -17 -22 -34t-34 -30.5t-46.5 -22t-59.5 -8.5h-3q-34 0 -60.5 8t-47 21.5t-34.5 30.5t-22 35q-17 35 -20 62.5t-3 29.5q0 11 8 19.5t20 8.5q11 0 19.5 -8.5t8.5 -19.5v-5q0 -2 0.5 -6t1.5 -9
q2 -10 5.5 -22.5t9.5 -24.5q7 -12 15.5 -23.5t22 -20.5t32 -14.5t44.5 -5.5t45 5.5t32 14.5t22 20.5t15 23.5t9.5 24t5.5 22q2 11 2 21v180q-22 -21 -54 -35t-77 -14q-34 0 -60.5 8t-47 21.5t-34.5 31t-22 34.5q-15 30 -19 54.5t-4 34.5v4v318q0 2 3 29.5t20 62.5
q8 18 22 35t34.5 31t47 22t60.5 8q45 0 77 -14t54 -35v20q0 12 8 20q11 9 20 9q12 0 20 -9zM358 506v5q0 2 -0.5 6t-1.5 9q-2 10 -5 22.5t-10 24.5q-6 12 -15 23.5t-22 20.5t-32 14.5t-45 5.5t-44.5 -5.5t-32 -14.5t-22 -20.5t-15.5 -23.5q-7 -13 -10 -24.5t-5 -21.5
q-2 -11 -2 -21v-316q0 2 -0.5 3t-0.5 3q0 -2 0.5 -4t0.5 -4v-6q0 -3 0.5 -6.5t1.5 -8.5q3 -22 15 -47q7 -12 15.5 -23.5t22 -20.5t32 -14.5t44.5 -5.5t45 5.5t32 14.5t22 20.5t15 23.5q11 23 14 42t3 24v320z" />
    <glyph glyph-name="h" unicode="h" 
d="M387 0q-12 0 -20.5 8t-8.5 20v477v6t-2 15t-5 22t-10 25q-6 12 -15 23.5t-22 20.5t-32 14.5t-45 5.5t-44.5 -5.5t-31.5 -14.5t-22 -20.5t-16 -23.5q-11 -23 -14 -42t-3 -24v-2v-477q0 -5 -2 -11q-2 -5 -6 -9q-7 -8 -20 -8q-12 0 -20 8t-8 20v477v372q0 12 8 20t20 8
t20 -8t8 -20v-233q22 21 54 35.5t77 13.5q34 0 61 -8t47 -21.5t34.5 -31t22.5 -34.5q9 -18 13.5 -34t6.5 -29t2.5 -21t0.5 -9v-477q0 -12 -8.5 -20t-19.5 -8z" />
    <glyph glyph-name="i" unicode="i" horiz-adv-x="176" 
d="M88 0q-11 0 -19.5 8.5t-8.5 19.5v478q0 12 8.5 20t19.5 8q12 0 20 -8t8 -20v-478q0 -11 -8 -19.5t-20 -8.5zM88 611q-11 0 -19.5 8t-8.5 20v26q0 12 8.5 20t19.5 8q12 0 20 -8t8 -20v-26q0 -12 -8 -20t-20 -8z" />
    <glyph glyph-name="j" unicode="j" horiz-adv-x="246" 
d="M158 534q11 0 19.5 -8.5t8.5 -19.5v-634q0 1 -0.5 2t-0.5 3q1 -3 1 -8v-2q0 -6 -3.5 -32t-19.5 -58q-8 -18 -22 -35t-34 -30.5t-46.5 -22t-59.5 -8.5h-2q-34 0 -61 8t-47 22t-34.5 31t-22.5 35q-9 17 -13.5 33t-6.5 29t-2.5 21t-0.5 9q0 11 8.5 19.5t19.5 8.5
q12 0 20 -8.5t8 -19.5q1 0 1 -5.5t2 -14.5q2 -10 5 -22.5t9 -24.5q7 -12 16 -23.5t22 -20.5t32 -14.5t45 -5.5t44.5 5.5t31.5 14.5t22 20.5t16 23.5q11 21 13.5 39.5t3.5 24.5v3v637q0 11 8 19.5t20 8.5zM158 693q11 0 19.5 -8t8.5 -20v-26q0 -12 -8.5 -20t-19.5 -8
q-12 0 -20 8t-8 20v26q0 12 8 20t20 8z" />
    <glyph glyph-name="k" unicode="k" horiz-adv-x="456" 
d="M333 346q22 -14 36.5 -31.5t23.5 -35.5q17 -35 20 -62.5t3 -29.5v-159q0 -12 -8.5 -20t-19.5 -8q-12 0 -20 8t-8 20v159q1 0 -2 20q-2 10 -5.5 22.5t-9.5 24.5q-7 12 -16 23.5t-22 20.5t-32 14.5t-45 5.5h-132v-290q0 -12 -8.5 -20t-19.5 -8q-12 0 -20 8t-8 20v849
q0 12 8 20t20 8q11 0 19.5 -8t8.5 -20v-503h132q26 1 45 6.5t32 14.5t22 20.5t16 23.5q6 12 9 24t5 22q2 11 3 21q0 11 8 19.5t20 8.5q11 0 19.5 -8.5t8.5 -19.5q0 -1 -0.5 -9t-2.5 -21t-6.5 -29t-13.5 -34t-23.5 -35.5t-36.5 -31.5z" />
    <glyph glyph-name="l" unicode="l" horiz-adv-x="136" 
d="M68 906q12 0 20 -8.5t8 -19.5v-850q0 -11 -8 -19.5t-20 -8.5q-11 0 -19.5 8.5t-8.5 19.5v850q0 11 8.5 19.5t19.5 8.5z" />
    <glyph glyph-name="m" unicode="m" horiz-adv-x="773" 
d="M710 598q15 -30 19 -55.5t4 -33.5v-3v-478q0 -12 -8 -20t-20 -8q-11 0 -19.5 8t-8.5 20v478v5q0 2 -0.5 6t-1.5 9q-2 10 -5 22t-10 25q-6 12 -15 23.5t-22 20.5t-32 14.5t-45 5.5t-45 -5.5t-32 -14.5t-22 -20.5t-15 -23.5q-7 -13 -10 -24.5t-5 -21.5q-2 -11 -2 -21
q0 -2 -0.5 -3.5t-0.5 -3.5v-471q0 -12 -8.5 -20t-20.5 -8q-11 0 -19.5 8t-8.5 20v478q0 11 -2 22q-2 10 -5.5 22t-9.5 24q-7 12 -15.5 23t-22 20t-32 14.5t-44.5 5.5t-44.5 -5.5t-31.5 -14.5t-21.5 -20.5t-15.5 -23.5q-10 -20 -13 -38t-4 -25v-482q0 -7 -3 -13q-2 -4 -5 -7
q-8 -8 -20 -8t-20 8t-8 20v478v159q0 11 8.5 19.5t19.5 8.5q12 0 20 -8.5t8 -19.5v-20q22 21 54 35t76 13q32 0 57.5 -7t45.5 -19t34 -28t23 -32q9 16 23.5 32t34.5 28t45 19t57 7q34 0 60.5 -8t47 -21.5t34.5 -30.5t22 -35z" />
    <glyph glyph-name="n" unicode="n" horiz-adv-x="481" 
d="M418 600q17 -35 20 -62.5t3 -31.5v-478q0 -11 -8 -19.5t-20 -8.5q-11 0 -19.5 8.5t-8.5 19.5v477v1q0 11 -2 22q-3 22 -15 47q-7 12 -16 23t-22 19.5t-31.5 14t-44.5 5.5q-32 0 -55 -6t-39 -15t-26.5 -20.5t-17.5 -23.5q-14 -23 -17 -41.5t-3 -23.5v-479q0 -3 -0.5 -5.5
t-1.5 -5.5q-2 -5 -6 -9q-8 -8 -20 -8t-20 8t-8 20v478v159q0 12 8.5 20t19.5 8q12 0 20 -8t8 -20v-28q25 24 63.5 40.5t94.5 15.5q33 0 59.5 -7.5t47 -21t34.5 -30t23 -34.5z" />
    <glyph glyph-name="o" unicode="o" 
d="M227 693q34 0 61 -8t47 -21.5t34.5 -30.5t22.5 -35q9 -18 13.5 -34t6.5 -29t2.5 -20.5t0.5 -8.5v-319q0 -1 -0.5 -8.5t-2.5 -20.5t-6.5 -29t-13.5 -34q-8 -17 -22 -34t-34 -30.5t-46.5 -22t-59.5 -8.5h-3q-33 0 -60 8t-47 21.5t-34.5 30.5t-22.5 35q-9 18 -13.5 34
t-6.5 29t-2.5 20.5t-0.5 8.5v319q0 1 0.5 8.5t2.5 20.5t6.5 29t13.5 34q8 18 22.5 35t34.5 30.5t47 21.5t60 8zM358 506v5q0 2 -0.5 6t-1.5 9q-2 10 -5 22t-10 25q-6 12 -15 23.5t-22 20.5t-32 14.5t-45 5.5t-44.5 -5.5t-32 -14.5t-22 -20.5t-15.5 -23.5q-7 -13 -10 -24.5
t-5 -21.5q-2 -11 -2 -21v-319v-5q0 -2 0.5 -6t1.5 -9q3 -22 15 -47q7 -12 15.5 -23.5t22 -20.5t32 -14.5t44.5 -5.5t45 5.5t32 14.5t22 20.5t15 23.5t9.5 24t5.5 22q2 11 2 21v319z" />
    <glyph glyph-name="p" unicode="p" 
d="M228 695q33 0 60 -8t47 -21.5t34.5 -31t22.5 -34.5q9 -18 13.5 -34t6.5 -29t2.5 -20.5t0.5 -8.5v-319q0 -2 -3 -29.5t-20 -62.5q-8 -18 -22.5 -35t-34.5 -30.5t-47 -22t-61 -8.5h-112h-19v-290q0 -10 -8 -20q-8 -8 -20 -8q-10 0 -20 8l-6 9q-1 3 -1.5 5.5t-0.5 5.5v956
q0 11 8.5 19.5t19.5 8.5q12 0 20 -8.5t8 -19.5v-21q22 21 54.5 35t77.5 14zM359 508q1 0 -2 20q-2 10 -5.5 22t-9.5 25q-7 12 -16 23.5t-22 20.5t-31.5 14.5t-44.5 5.5t-45 -5.5t-32 -14.5t-22 -20.5t-16 -23.5q-11 -23 -14 -42t-3 -24v-1v-450h19h65h47q26 0 45 5.5
t32 14.5t22 20.5t16 23.5q6 12 9 24t5 22q2 11 3 21v319z" />
    <glyph glyph-name="q" unicode="q" horiz-adv-x="454" 
d="M386 695q12 0 20 -8.5t8 -19.5l1 -956q0 -11 -9 -20q-8 -8 -19 -8q-12 0 -20 8q-9 9 -9 20v290h-19h-112q-33 0 -60 8.5t-47 22t-34.5 30.5t-22.5 35q-17 35 -20 62.5t-3 29.5v319q0 1 0.5 8.5t2.5 20.5t6.5 29t13.5 34q8 17 22.5 34.5t34.5 31t47 21.5t60 8
q45 0 77.5 -14t53.5 -35v21q0 11 8.5 19.5t19.5 8.5zM358 58v450v5q0 2 -0.5 6t-1.5 9q-2 10 -5 22t-10 25q-6 12 -15 23.5t-22 20.5t-32 14.5t-45 5.5t-44.5 -5.5t-32 -14.5t-22 -20.5t-15.5 -23.5q-7 -13 -10 -25t-5 -21q-2 -11 -2 -21v-319v-5q0 -2 0.5 -6t1.5 -9
q2 -10 5.5 -22.5t9.5 -24.5q7 -12 15.5 -23.5t22 -20.5t32 -14.5t44.5 -5.5h48h64h19z" />
    <glyph glyph-name="r" unicode="r" horiz-adv-x="435" 
d="M392 598q17 -35 20 -62.5t3 -29.5q0 -12 -8.5 -20t-19.5 -8q-12 0 -20 8t-8 20q-1 0 -1 5t-2 15t-5 22.5t-9 24.5q-7 12 -16 23.5t-22 20.5t-31.5 14.5t-44.5 5.5t-45 -5.5t-32 -14.5t-22 -20.5t-16 -23.5q-11 -22 -14 -41.5t-3 -24.5v-1v-478q0 -9 -5 -17l-3 -3
q-3 -3 -11 -7h-1q-2 -1 -8 -1q-12 0 -20 8q-8 10 -8 20v478v159q0 12 8.5 20t19.5 8q12 0 20 -8t8 -20v-20q22 21 54.5 35t77.5 13q33 0 60 -8t47 -21.5t34.5 -30.5t22.5 -35z" />
    <glyph glyph-name="s" unicode="s" 
d="M113 573q-7 -13 -10 -24.5t-5 -21.5q-2 -11 -2 -21v-1q1 -2 3 -22.5t14 -44.5q7 -12 16 -23.5t22 -20.5t31.5 -14.5t44.5 -5.5q34 0 61 -8t47 -21.5t34.5 -30.5t22.5 -35q17 -35 20 -62.5t3 -29.5t-3 -29.5t-20 -62.5q-8 -18 -22 -35t-34 -30.5t-46.5 -21.5t-59.5 -8h-3
q-33 0 -60 8t-47 21.5t-34.5 30.5t-22.5 35q-17 35 -20 62.5t-3 29.5q0 11 8.5 19.5t19.5 8.5q12 0 20 -8.5t8 -19.5v-5q0 -2 0.5 -6t1.5 -9q2 -10 5.5 -22.5t9.5 -24.5q7 -12 16 -23.5t22 -20.5t31.5 -14.5t44.5 -5.5t45 5.5t32 14.5t22 20.5t16 23.5q6 12 9 24t5 22
q2 11 3 21q-1 0 -1 5t-2 15t-5 22.5t-9 24.5q-7 12 -16 23.5t-22 20.5t-32 14.5t-45 5.5q-33 0 -60 8t-47 21.5t-34.5 30.5t-22.5 35q-9 18 -13.5 34t-6.5 29t-2.5 21t-0.5 9q0 5 3 32t20 60q8 17 22.5 34.5t34.5 31t47 21.5t60 8q34 0 61 -8t47 -21.5t34.5 -31t22.5 -34.5
q9 -18 13.5 -34t6.5 -29t2.5 -20.5t0.5 -8.5q0 -12 -8.5 -20.5t-19.5 -8.5q-12 0 -20 8.5t-8 20.5q-1 0 -1 5t-2 15t-5 22t-9 25q-7 12 -16 23.5t-22 20.5t-32 14.5t-45 5.5t-44.5 -5.5t-31.5 -14.5t-22 -20.5t-16 -23.5zM75 533q1 0 4.5 -1.5t8.5 -5.5q-8 6 -13 7z" />
    <glyph glyph-name="t" unicode="t" horiz-adv-x="444" 
d="M396 215q12 0 20 -8t8 -20q0 -2 -2.5 -29.5t-19.5 -62.5q-8 -17 -22 -34t-34 -30.5t-46.5 -22t-59.5 -8.5h-3q-33 0 -60 8t-47 21.5t-34.5 30.5t-22.5 35q-17 35 -20 62.5t-3 29.5v450h-12q-12 0 -20 8t-8 20q0 11 8 19.5t20 8.5h12v184q0 12 8 20t20 8q11 0 19.5 -8
t8.5 -20v-184h144q12 0 20 -8.5t8 -19.5q0 -12 -8 -20t-20 -8h-144v-450v-5q0 -2 0.5 -6t1.5 -9q3 -22 15 -47q7 -12 15.5 -23.5t22 -20.5t32 -14.5t44.5 -5.5t45 5.5t32 14.5t22 20.5t15 23.5t9.5 24t5.5 22q2 11 2 21q0 12 8.5 20t19.5 8z" />
    <glyph glyph-name="u" unicode="u" horiz-adv-x="481" 
d="M433 685q3 -4 5 -8q3 -5 3 -12v-478v-159q0 -12 -8 -20t-20 -8q-11 0 -19.5 8t-8.5 20v28q-25 -24 -63.5 -40.5t-94.5 -15.5h-2q-33 0 -59 8t-46 21t-34 30t-23 34q-17 35 -20 62.5t-3 31.5v3v475q0 11 8 19.5t20 8.5t20 -8.5t8 -19.5v-478v-2q0 -6 3 -26t14 -41
q7 -12 16 -23t22 -19.5t31.5 -14t44.5 -5.5q32 0 55 6t39 15t26.5 21t17.5 24q14 22 17 40.5t3 23.5v1v478q0 12 8 20t20 8t20 -8z" />
    <glyph glyph-name="v" unicode="v" horiz-adv-x="415" 
d="M373 692q11 -3 17 -13t4 -21l-160 -637q-5 -21 -27 -21t-27 21l-159 637q-3 11 3 21t17 13t21 -3t13 -17l132 -528l132 528q3 11 13 17t21 3z" />
    <glyph glyph-name="w" unicode="w" horiz-adv-x="773" 
d="M733 28q0 -12 -8 -20t-20 -8q-11 0 -19.5 8t-8.5 20v20q-22 -21 -53.5 -35t-76.5 -13q-32 0 -57.5 7t-45 19t-34 27.5t-23.5 32.5q-9 -16 -23 -31.5t-33.5 -27.5t-44.5 -19.5t-56 -7.5h-3q-33 0 -60 8t-47 21.5t-34.5 30.5t-22.5 35q-9 18 -13.5 34t-6.5 29t-2.5 20.5
t-0.5 8.5v3v475q0 12 8.5 20t19.5 8q12 0 20 -8t8 -20v-478v-1v-6.5t2 -12.5q3 -22 15 -47q7 -12 15.5 -23.5t22 -20.5t32 -14.5t44.5 -5.5t45 5.5t32 14.5t22 20.5t15 23.5t10 24t6 22q3 11 3 21v7v471q0 12 8 20t20 8q11 0 19.5 -8t8.5 -20v-478v-2q0 -6 3 -26t14 -41
q7 -12 16 -23t22 -19.5t31.5 -14t44.5 -5.5q52 1 76 20t37 44q10 20 13 37.5t4 25.5v482q0 8 5 16q1 1 1.5 2t1.5 2l3 3q8 5 17 5q12 0 20 -8t8 -20v-478v-159z" />
    <glyph glyph-name="x" unicode="x" 
d="M387 693q11 0 19.5 -8t8.5 -20v-159q0 -2 -3 -29.5t-20 -62.5q-9 -18 -23.5 -35.5t-36.5 -31.5q21 -14 36 -31.5t24 -35.5q15 -30 18.5 -55.5t3.5 -33.5q1 -1 1 -4v-159q0 -11 -8.5 -19.5t-19.5 -8.5q-12 0 -20.5 8.5t-8.5 19.5v159v6q0 3 -0.5 6.5t-1.5 8.5q-2 10 -5 22
t-10 25q-6 12 -15 23.5t-22 20.5t-32 14.5t-45 5.5t-44.5 -6t-31.5 -15t-22 -20.5t-16 -23.5q-13 -25 -15 -45.5t-2 -21.5v-159q0 -11 -8 -19.5t-20 -8.5t-20 8.5t-8 19.5v159q0 1 0.5 9t2.5 21t6.5 29t13.5 34q8 18 23 35.5t37 31.5q-22 14 -37 31.5t-23 35.5
q-17 35 -20 62.5t-3 29.5v159q0 12 8 20t20 8t20 -8t8 -20v-159v-1v-6.5t2 -12.5q2 -10 5.5 -22.5t9.5 -24.5q7 -12 15.5 -23.5t22 -20.5t32 -14.5t44.5 -5.5t45 5.5t32 14.5t22 20.5t16 23.5q12 25 14.5 46t1.5 21v159q0 12 8.5 20t20.5 8z" />
    <glyph glyph-name="y" unicode="y" 
d="M387 693q12 0 20 -8t8 -20v-796q0 -2 -3 -29.5t-20 -62.5q-8 -18 -22 -35t-34 -30.5t-46.5 -22t-59.5 -8.5h-2q-34 0 -61 8t-47 22t-34.5 31t-22.5 35q-9 17 -13.5 33.5t-6.5 29t-2.5 20.5t-0.5 9q0 11 8.5 19.5t20.5 8.5q11 0 19.5 -8.5t8.5 -19.5v-5q0 -2 0.5 -6
t1.5 -9q2 -10 5 -22.5t10 -24.5q6 -12 15 -23.5t22 -20.5t32 -14.5t45 -5.5t44.5 5.5t31.5 14.5t22 20.5t16 23.5q6 12 9.5 24t5.5 22q2 11 2 21v180q-22 -21 -54 -35.5t-77 -13.5q-34 0 -61 8t-47 21.5t-34.5 30.5t-22.5 35q-9 18 -13.5 34t-6.5 29t-2.5 20.5t-0.5 8.5v478
q0 12 8.5 20t20.5 8q11 0 19.5 -8t8.5 -20v-478q0 -2 2.5 -23t13.5 -44q7 -12 16 -23.5t22 -20.5t32 -14.5t45 -5.5t44.5 5.5t31.5 14.5t22 20.5t16 23.5q11 23 14 42t3 24v479v2v1q0 5 3 10v1q2 2 2.5 3t2.5 3q8 8 20 8z" />
    <glyph glyph-name="z" unicode="z" 
d="M387 56q11 0 19.5 -8t8.5 -20q0 -11 -8.5 -19.5t-19.5 -8.5h-319q-16 0 -24 13q-8 15 -1 28l139 278h-61q-11 0 -19.5 8t-8.5 20q0 11 8.5 19.5t19.5 8.5h89l131 262h-273q-12 0 -20 8.5t-8 19.5q0 12 8 20t20 8h319q15 0 23 -13q5 -6 5 -13.5t-3 -13.5l-139 -278h60
q12 0 20.5 -8.5t8.5 -19.5q0 -12 -8.5 -20t-20.5 -8h-89l-131 -263h274v0z" />
    <glyph glyph-name="braceleft" unicode="{" horiz-adv-x="268" 
d="M199 0q-2 0 -17 1t-35 11t-38 34t-17 61v266q0 -1 -1 8q-1 4 -2.5 9t-3.5 10q-6 10 -14 17t-31 8v56h2q3 0 6 1q4 1 9 2.5t10 3.5q10 6 17 14t8 31v265q0 2 1 17.5t12 35.5q9 20 33 38t61 17h29v-56h-29q-23 -1 -30.5 -7.5t-13.5 -16.5q-3 -5 -4 -10t-2 -9t-1 -11v-263
q1 -27 -9 -47t-24 -33q14 -14 20 -27q10 -20 11.5 -35.5t1.5 -17.5v-266q1 -23 7.5 -30.5t16.5 -13.5q5 -3 9.5 -4t8.5 -2t9 -1h29v-57z" />
    <glyph glyph-name="bar" unicode="|" horiz-adv-x="278" 
d="M120 -189v1096h56v-1096h-56v0v0z" />
    <glyph glyph-name="braceright" unicode="}" horiz-adv-x="268" 
d="M68 0h-28v56h28q23 1 31 7.5t14 16.5q4 8 6 18q1 4 1 9v266q-1 27 8.5 47t23.5 33q-13 13 -19 27q-11 20 -12 35.5t-1 17.5v265q-1 23 -8 31t-17 14q-11 4 -18 6q-4 1 -9 1h-28v56h28q2 0 17.5 -1.5t35.5 -11.5q19 -9 37.5 -33.5t17.5 -61.5v-265v-2q0 -4 1 -6
q2 -10 6 -20q6 -10 14 -16.5t31 -7.5v-56q-3 0 -8 -1q-10 -2 -20 -6q-10 -6 -16.5 -14t-7.5 -31v-266q0 -2 -1.5 -17t-11.5 -35q-9 -20 -32.5 -38t-60.5 -18q-1 0 -2 1z" />
    <glyph glyph-name="currency" unicode="&#xa4;" horiz-adv-x="322" 
d="M319 215q11 0 19.5 -8.5t8.5 -19.5q0 -1 -0.5 -9t-2.5 -21t-6.5 -29t-13.5 -33q-8 -18 -22 -35t-34 -30.5t-46.5 -21.5t-59.5 -8h-2q-34 0 -61 8t-47 21.5t-34.5 30.5t-22.5 35q-9 17 -13.5 33t-6.5 29t-2.5 21t-0.5 9q0 11 8.5 19.5t20.5 8.5q11 0 19.5 -8.5t8.5 -19.5
v-6v-6t2 -8q2 -10 5 -22.5t10 -24.5q6 -12 15 -23.5t22 -20.5t32 -14.5t45 -5.5t44.5 5.5t31.5 14.5t22 20.5t16 23.5q12 25 14.5 46t1.5 21q0 11 8.5 19.5t20.5 8.5z" />
    <glyph glyph-name="Aacute" unicode="&#xc1;" horiz-adv-x="635" 
d="M174 974q-4 11 1 21.5t16 14.5l213 80q11 4 21.5 -1t14.5 -16t-1 -21t-16 -15l-212 -80q-4 -1 -10 -1q-19 0 -27 18zM318 904q20 0 27 -20l270 -884h-59l-64 211h-348l-64 -211h-59l270 884q7 20 27 20zM194 373h248l-124 407zM475 267l-16 50h-282l-16 -50h314z" />
    <glyph glyph-name="Ccedilla" unicode="&#xc7;" horiz-adv-x="614" 
d="M574 187q0 -34 -8 -60.5t-21.5 -47t-31 -34.5t-34.5 -23q-18 -9 -34 -13.5t-29 -6.5t-21 -2h-9h-50v-52h-1q0 -2 0.5 -2.5t0.5 -1.5q-1 -6 -3 -19.5t-10 -29.5q-9 -20 -32.5 -38t-60.5 -18h-2q-12 0 -20.5 8.5t-8.5 20.5q0 11 8.5 19.5t20.5 8.5q23 1 31 7.5t13 16.5
q2 5 3.5 10t2.5 9t1 9v52h-52q-2 0 -29.5 2.5t-62.5 19.5q-18 9 -35 23t-30.5 34.5t-21.5 47t-8 60.5v532q0 2 4 29.5t21 62.5q9 17 23 34t34 30.5t46 21.5t59 8h159h9t21 -2.5t29 -7t34 -13.5q17 -8 34.5 -22t31 -34.5t21.5 -47t8 -60.5h-56q0 26 -6 45t-15 32t-20.5 22
t-23.5 15q-25 12 -46 15q-11 2 -21 2h-159q-25 0 -43 -5.5t-31 -14.5t-22 -20.5t-16 -23.5q-6 -13 -10 -25t-6 -21.5t-2.5 -15l-0.5 -5.5v-531q0 -26 5.5 -45t14.5 -32t20.5 -22t23.5 -15q12 -7 24 -10t22 -5q11 -2 21 -2h159h6q3 0 6.5 0.5t8.5 1.5q10 2 22 5t24 10
q12 6 23.5 15t20.5 22t15 32t6 45h56z" />
    <glyph glyph-name="Eacute" unicode="&#xc9;" horiz-adv-x="612" 
d="M174 974q-4 11 1 21.5t16 14.5l213 80q11 4 21.5 -1t14.5 -16t-1 -21t-16 -15l-212 -80q-4 -1 -10 -1q-19 0 -27 18zM48 897q7 9 20 9h504v-1v-56h-476v-315h397v-56h-397v-422h476v-56h-504q-12 0 -20 8t-8 20v849q0 12 8 20z" />
    <glyph glyph-name="agrave" unicode="&#xe0;" horiz-adv-x="508" 
d="M387 776q-8 -19 -27 -19q-6 0 -10 1l-212 84q-12 5 -16.5 16t-0.5 22q4 12 14.5 17t21.5 1l213 -84q12 -5 16.5 -16t0.5 -22zM225 0q-33 0 -59.5 8.5t-46.5 22t-34 30.5t-22 35q-17 35 -20 62.5t-3 29.5q0 1 0.5 8.5t2.5 20.5t6.5 29t13.5 34q8 18 22.5 35t34.5 30.5
t47 21.5t61 8h184v131v6q0 3 -0.5 6.5t-1.5 8.5q-2 10 -5.5 22t-9.5 24q-7 12 -16 23.5t-22 20.5t-31.5 15t-44.5 6t-45 -6t-32 -15t-22 -20.5t-16 -23.5q-12 -25 -14.5 -45.5t-2.5 -21.5q0 -11 -8 -19.5t-20 -8.5q-11 0 -19.5 8.5t-8.5 19.5q0 1 0.5 9t2.5 21t6.5 29
t13.5 34q8 17 22.5 34.5t34.5 31t47 21.5t61 8q33 0 60 -8t47 -21.5t34.5 -31t22.5 -34.5q9 -18 13.5 -34t6.5 -29t2.5 -21t0.5 -9v-159v-319q0 -11 -8 -19q-9 -9 -20 -9h-212h-3zM113 255q-7 -13 -10 -24.5t-5 -21.5q-2 -11 -2 -21v-6q0 -3 0.5 -6.5t1.5 -8.5
q2 -9 5.5 -21.5t9.5 -24.5q7 -12 16 -23.5t22 -20.5t32 -14.5t45 -5.5h184v262h-184q-26 0 -45 -5.5t-32 -14.5t-22 -20.5t-16 -23.5z" />
    <glyph glyph-name="aacute" unicode="&#xe1;" horiz-adv-x="508" 
d="M121 776q-4 11 0.5 22t16.5 16l212 84q11 4 22 -1t15 -17q4 -11 -0.5 -22t-16.5 -16l-212 -84q-4 -1 -10 -1q-19 0 -27 19zM225 0h3h212q11 0 20 9q8 8 8 19v319v159q0 1 -0.5 9t-2.5 21t-6.5 29t-13.5 34q-8 17 -22.5 34.5t-34.5 31t-47 21.5t-60 8q-34 0 -61 -8
t-47 -21.5t-34.5 -31t-22.5 -34.5q-9 -18 -13.5 -34t-6.5 -29t-2.5 -21t-0.5 -9q0 -11 8.5 -19.5t19.5 -8.5q12 0 20 8.5t8 19.5q0 1 2.5 21.5t14.5 45.5q7 12 16 23.5t22 20.5t32 15t45 6t44.5 -6t31.5 -15t22 -20.5t16 -23.5q6 -12 9.5 -24t5.5 -22q1 -5 1.5 -8.5
t0.5 -6.5v-6v-131h-184q-34 0 -61 -8t-47 -21.5t-34.5 -30.5t-22.5 -35q-9 -18 -13.5 -34t-6.5 -29t-2.5 -20.5t-0.5 -8.5q0 -2 3 -29.5t20 -62.5q8 -18 22 -35t34 -30.5t46.5 -22t59.5 -8.5zM113 255q7 12 16 23.5t22 20.5t32 14.5t45 5.5h184v-262h-184q-26 0 -45 5.5
t-32 14.5t-22 20.5t-16 23.5q-6 12 -9.5 24.5t-5.5 21.5q-1 5 -1.5 8.5t-0.5 6.5v6q0 10 2 21q2 10 5 21.5t10 24.5z" />
    <glyph glyph-name="adieresis" unicode="&#xe4;" horiz-adv-x="508" 
d="M225 0q-33 0 -59.5 8.5t-46.5 22t-34 30.5t-22 35q-17 35 -20 62.5t-3 29.5q0 1 0.5 8.5t2.5 20.5t6.5 29t13.5 34q8 18 22.5 35t34.5 30.5t47 21.5t61 8h184v131v6q0 3 -0.5 6.5t-1.5 8.5q-2 10 -5.5 22t-9.5 24q-7 12 -16 23.5t-22 20.5t-31.5 15t-44.5 6t-45 -6
t-32 -15t-22 -20.5t-16 -23.5q-12 -25 -14.5 -45.5t-2.5 -21.5q0 -11 -8 -19.5t-20 -8.5q-11 0 -19.5 8.5t-8.5 19.5q0 1 0.5 9t2.5 21t6.5 29t13.5 34q8 17 22.5 34.5t34.5 31t47 21.5t61 8q33 0 60 -8t47 -21.5t34.5 -31t22.5 -34.5q9 -18 13.5 -34t6.5 -29t2.5 -21
t0.5 -9v-159v-319q0 -11 -8 -19q-9 -9 -20 -9h-212h-3zM113 255q-7 -13 -10 -24.5t-5 -21.5q-2 -11 -2 -21v-6q0 -3 0.5 -6.5t1.5 -8.5q2 -9 5.5 -21.5t9.5 -24.5q7 -12 16 -23.5t22 -20.5t32 -14.5t45 -5.5h184v262h-184q-26 0 -45 -5.5t-32 -14.5t-22 -20.5t-16 -23.5z
M231 770q-11 0 -19.5 8t-8.5 20v26q0 12 8.5 20t19.5 8q12 0 20 -8t8 -20v-26q0 -12 -8 -20t-20 -8zM331 770q-11 0 -19.5 8t-8.5 20v26q0 12 8.5 20t19.5 8q12 0 20 -8t8 -20v-26q0 -12 -8 -20t-20 -8z" />
    <glyph glyph-name="ae" unicode="&#xe6;" horiz-adv-x="838" 
d="M478 320v-131v-6q0 -3 0.5 -6.5t1.5 -8.5q3 -22 15 -47q7 -12 16 -23.5t22 -20.5t32 -14.5t45 -5.5t45 5.5t32 14.5t22 20.5t16 23.5q13 25 15 46t2 22q0 11 8 19.5t20 8.5t20 -8.5t8 -19.5q0 -1 -0.5 -9t-2.5 -21t-6.5 -29t-13.5 -34q-8 -18 -22 -35t-34.5 -30.5
t-47 -22t-59.5 -8.5h-2q-49 0 -83.5 17t-56.5 41v-30q0 -11 -8 -19q-8 -9 -20 -9h-213h-3q-33 0 -59.5 8.5t-47 22t-34.5 30.5t-22 35q-9 18 -13.5 34t-6.5 29t-2.5 21t-0.5 9t0.5 8.5t2.5 20.5t6.5 29t13.5 34t23 35t34.5 31t47.5 22t61 8h185v132v5q0 2 -0.5 6t-1.5 9
q-2 10 -5.5 22t-9.5 25q-7 12 -16 23.5t-22 20.5t-32 14.5t-45 5.5t-45 -5.5t-32 -14.5t-22 -20.5t-16 -23.5q-7 -13 -10 -24.5t-5 -21.5q-2 -11 -2 -21q0 -12 -8.5 -20.5t-19.5 -8.5q-12 0 -20 8.5t-8 20.5q0 2 2.5 29.5t20.5 62.5q8 18 22.5 35t34.5 31t47 22t61 8
q33 0 59.5 -8t47 -21t34.5 -30t23 -34q9 17 23 34t34 30t47 21t60 8q34 0 61 -8t47 -22t34.5 -31t22.5 -35q17 -35 20 -62.5t3 -29.5q0 -1 -0.5 -9t-2.5 -21t-6.5 -29t-13.5 -34q-8 -18 -22.5 -35t-34.5 -31t-47 -22t-61 -8h-132zM478 377h132q26 0 45 5.5t32 14.5t22 20.5
t16 23.5q6 12 9.5 24t5.5 22q2 11 2 22v5q0 2 -0.5 6t-1.5 9q-2 10 -5.5 22t-9.5 25q-7 12 -16 23.5t-22 20.5t-32 14.5t-45 5.5t-45 -5.5t-32 -14.5t-22 -20.5t-16 -23.5q-7 -13 -10 -24.5t-5 -21.5q-2 -11 -2 -21v-132zM414 320h-185q-26 0 -45 -5.5t-32.5 -14.5
t-22.5 -20.5t-15 -23.5q-7 -13 -10 -24.5t-5 -21.5q-2 -11 -2 -21v-6q0 -3 0.5 -6.5t1.5 -8.5q2 -10 5 -22t10 -25q6 -12 15 -23.5t22.5 -20.5t32.5 -14.5t45 -5.5h185v263z" />
    <glyph glyph-name="ccedilla" unicode="&#xe7;" 
d="M387 215q11 0 19 -9t8 -20q-1 -2 -4.5 -29t-21.5 -62q-16 -31 -48.5 -59t-85.5 -35v-53v-4q0 -6 -2.5 -19t-10.5 -29q-9 -20 -32.5 -38t-59.5 -18h-3q-12 0 -20 8.5t-8 19.5q0 12 8 20t20 8q23 1 31 8t14 17q4 8 6 18q1 4 1 9v54q-53 6 -85.5 34t-47.5 59q-9 17 -14 33
t-8 29t-3.5 21t-0.5 9v316v6q0 10 3.5 39t22.5 61q9 16 23.5 31.5t34.5 27.5t45.5 18.5t57.5 6.5t58 -6.5t46 -18.5t34.5 -27.5t23.5 -31.5q18 -32 21.5 -60.5t4.5 -39.5v-4q-1 -11 -9.5 -19.5t-19.5 -7.5q-12 0 -20 8.5t-8 20.5v2q1 6 -2 28t-16 44q-7 11 -16 21t-22 17.5
t-31.5 12.5t-43.5 5q-51 -1 -75 -17.5t-37 -38.5t-16 -44t-3 -28v-3v-317v-6q0 -6 3 -15q2 -10 6 -22t10 -25q14 -26 38.5 -45t73.5 -20q49 1 73.5 20t38.5 45q14 25 17 46.5t2 21.5q1 11 9.5 19t20.5 7z" />
    <glyph glyph-name="egrave" unicode="&#xe8;" 
d="M361 764q-8 -19 -27 -19q-6 0 -10 1l-212 84q-12 5 -16.5 16t-0.5 22q4 12 14.5 17t21.5 1l213 -84q12 -5 16.5 -16t0.5 -22zM97 318v-131v-5q0 -2 0.5 -6t1.5 -9q2 -10 5 -22.5t9 -24.5q7 -12 16 -23.5t22 -20.5t32 -14.5t45 -5.5t44.5 5.5t31.5 14.5t22 20.5t16 23.5
q6 12 9.5 24t5.5 22q2 11 2 21q0 11 8 19.5t20 8.5q11 0 19.5 -8.5t8.5 -19.5q0 -2 -3 -29.5t-20 -62.5q-8 -17 -22 -34t-34 -30.5t-46.5 -22t-59.5 -8.5h-2q-34 0 -61 8t-47 21.5t-34.5 30.5t-22.5 35q-9 17 -13.5 33.5t-6.5 29t-2.5 20.5t-0.5 9v159v159q0 1 0.5 9t2.5 21
t6.5 29t13.5 34q8 17 22.5 34.5t34.5 31t47 21.5t61 8q33 0 60 -8t47 -21.5t34.5 -31t22.5 -34.5q9 -18 13.5 -34t6.5 -29t2.5 -21t0.5 -9t-0.5 -8.5t-2.5 -20.5t-6.5 -29t-13.5 -34q-8 -17 -22.5 -34.5t-34.5 -31t-47 -21.5t-60 -8h-131zM97 374h131q26 0 44.5 5.5
t31.5 14.5t22 21t16 24q6 12 9.5 24t5.5 21q2 11 2 21v6t-2 15q-3 22 -15 47q-7 12 -16 23.5t-22 20.5t-31.5 14.5t-44.5 5.5t-45 -5.5t-32 -14.5t-22 -20.5t-16 -23.5q-12 -25 -14.5 -46t-1.5 -22v-131z" />
    <glyph glyph-name="eacute" unicode="&#xe9;" 
d="M95 763q-4 11 1 21.5t16 14.5l213 80q11 4 21.5 -1t14.5 -16t-1 -21t-16 -15l-212 -80q-4 -1 -10 -1q-19 0 -27 18zM228 318q33 0 60 8t47 21.5t34.5 31t22.5 34.5q9 18 13.5 34t6.5 29t2.5 20.5t0.5 8.5t-0.5 9t-2.5 21t-6.5 29t-13.5 34q-8 17 -22.5 34.5t-34.5 31
t-47 21.5t-60 8q-34 0 -61 -8t-47 -21.5t-34.5 -31t-22.5 -34.5q-9 -18 -13.5 -34t-6.5 -29t-2.5 -21t-0.5 -9v-159v-159q0 -1 0.5 -9t2.5 -20.5t6.5 -29t13.5 -33.5q8 -18 22.5 -35t34.5 -30.5t47 -21.5t61 -8h2q33 0 59.5 8.5t46.5 22t34 30.5t22 34q17 35 20 62.5t3 29.5
q0 11 -8.5 19.5t-19.5 8.5q-12 0 -20 -8.5t-8 -19.5q0 -10 -2 -21q-2 -10 -5.5 -22t-9.5 -24q-7 -12 -16 -23.5t-22 -20.5t-31.5 -14.5t-44.5 -5.5t-45 5.5t-32 14.5t-22 20.5t-16 23.5q-6 12 -9 24.5t-5 22.5q-1 5 -1.5 9t-0.5 6v5v131h131zM97 505q-1 1 1.5 22t14.5 46
q7 12 16 23.5t22 20.5t32 14.5t45 5.5t44.5 -5.5t31.5 -14.5t22 -20.5t16 -23.5q12 -25 15 -47q2 -10 2 -15v-6q0 -10 -2 -21q-2 -9 -5.5 -21t-9.5 -24q-7 -12 -16 -24t-22 -21t-31.5 -14.5t-44.5 -5.5h-131v131z" />
    <glyph glyph-name="ecircumflex" unicode="&#xea;" 
d="M122 749q-14 0 -23 11q-7 10 -5.5 21.5t11.5 18.5l107 80q17 14 34 0l106 -80q10 -7 11.5 -18.5t-5.5 -21.5q-8 -9 -19 -11t-21 6l-89 67l-90 -67q-8 -6 -17 -6zM97 318v-131v-5q0 -2 0.5 -6t1.5 -9q2 -10 5 -22.5t9 -24.5q7 -12 16 -23.5t22 -20.5t32 -14.5t45 -5.5
t44.5 5.5t31.5 14.5t22 20.5t16 23.5q6 12 9.5 24t5.5 22q2 11 2 21q0 11 8 19.5t20 8.5q11 0 19.5 -8.5t8.5 -19.5q0 -2 -3 -29.5t-20 -62.5q-8 -17 -22 -34t-34 -30.5t-46.5 -22t-59.5 -8.5h-2q-34 0 -61 8t-47 21.5t-34.5 30.5t-22.5 35q-9 17 -13.5 33.5t-6.5 29
t-2.5 20.5t-0.5 9v159v159q0 1 0.5 9t2.5 21t6.5 29t13.5 34q8 17 22.5 34.5t34.5 31t47 21.5t61 8q33 0 60 -8t47 -21.5t34.5 -31t22.5 -34.5q9 -18 13.5 -34t6.5 -29t2.5 -21t0.5 -9t-0.5 -8.5t-2.5 -20.5t-6.5 -29t-13.5 -34q-8 -17 -22.5 -34.5t-34.5 -31t-47 -21.5
t-60 -8h-131zM97 374h131q26 0 44.5 5.5t31.5 14.5t22 21t16 24q6 12 9.5 24t5.5 21q2 11 2 21v6t-2 15q-3 22 -15 47q-7 12 -16 23.5t-22 20.5t-31.5 14.5t-44.5 5.5t-45 -5.5t-32 -14.5t-22 -20.5t-16 -23.5q-12 -25 -14.5 -46t-1.5 -22v-131z" />
    <glyph glyph-name="edieresis" unicode="&#xeb;" 
d="M178 770q-11 0 -19.5 8t-8.5 20v26q0 12 8.5 20t19.5 8q12 0 20 -8t8 -20v-26q0 -12 -8 -20t-20 -8zM278 770q-11 0 -19.5 8t-8.5 20v26q0 12 8.5 20t19.5 8q12 0 20 -8t8 -20v-26q0 -12 -8 -20t-20 -8zM97 318v-131v-5q0 -2 0.5 -6t1.5 -9q2 -10 5 -22.5t9 -24.5
q7 -12 16 -23.5t22 -20.5t32 -14.5t45 -5.5t44.5 5.5t31.5 14.5t22 20.5t16 23.5q6 12 9.5 24t5.5 22q2 11 2 21q0 11 8 19.5t20 8.5q11 0 19.5 -8.5t8.5 -19.5q0 -2 -3 -29.5t-20 -62.5q-8 -17 -22 -34t-34 -30.5t-46.5 -22t-59.5 -8.5h-2q-34 0 -61 8t-47 21.5t-34.5 30.5
t-22.5 35q-9 17 -13.5 33.5t-6.5 29t-2.5 20.5t-0.5 9v159v159q0 1 0.5 9t2.5 21t6.5 29t13.5 34q8 17 22.5 34.5t34.5 31t47 21.5t61 8q33 0 60 -8t47 -21.5t34.5 -31t22.5 -34.5q9 -18 13.5 -34t6.5 -29t2.5 -21t0.5 -9t-0.5 -8.5t-2.5 -20.5t-6.5 -29t-13.5 -34
q-8 -17 -22.5 -34.5t-34.5 -31t-47 -21.5t-60 -8h-131zM97 374h131q26 0 44.5 5.5t31.5 14.5t22 21t16 24q6 12 9.5 24t5.5 21q2 11 2 21v6t-2 15q-3 22 -15 47q-7 12 -16 23.5t-22 20.5t-31.5 14.5t-44.5 5.5t-45 -5.5t-32 -14.5t-22 -20.5t-16 -23.5q-12 -25 -14.5 -46
t-1.5 -22v-131z" />
    <glyph glyph-name="icircumflex" unicode="&#xee;" horiz-adv-x="270" 
d="M29 554q-14 0 -23 11q-7 10 -5.5 21.5t11.5 18.5l107 80q17 14 34 0l106 -80q10 -7 11.5 -18.5t-5.5 -21.5q-8 -9 -19 -11t-21 6l-89 67l-90 -67q-8 -6 -17 -6zM137 0q-11 0 -19.5 8.5t-8.5 19.5v478q0 12 8.5 20t19.5 8q12 0 20 -8t8 -20v-478q0 -11 -8 -19.5t-20 -8.5z
" />
    <glyph glyph-name="idieresis" unicode="&#xef;" horiz-adv-x="176" 
d="M88 0q-11 0 -19.5 8.5t-8.5 19.5v478q0 12 8.5 20t19.5 8q12 0 20 -8t8 -20v-478q0 -11 -8 -19.5t-20 -8.5zM38 611q-11 0 -19.5 8t-8.5 20v26q0 12 8.5 20t19.5 8q12 0 20 -8t8 -20v-26q0 -12 -8 -20t-20 -8zM138 611q-11 0 -19.5 8t-8.5 20v26q0 12 8.5 20t19.5 8
q12 0 20 -8t8 -20v-26q0 -12 -8 -20t-20 -8z" />
    <glyph glyph-name="ugrave" unicode="&#xf9;" horiz-adv-x="481" 
d="M361 764q-8 -19 -27 -19q-6 0 -10 1l-212 84q-12 5 -16.5 16t-0.5 22q4 12 14.5 17t21.5 1l213 -84q12 -5 16.5 -16t0.5 -22zM433 685q3 -4 5 -8q3 -5 3 -12v-478v-159q0 -12 -8 -20t-20 -8q-11 0 -19.5 8t-8.5 20v28q-25 -24 -63.5 -40.5t-94.5 -15.5h-2q-33 0 -59 8
t-46 21t-34 30t-23 34q-17 35 -20 62.5t-3 31.5v3v475q0 11 8 19.5t20 8.5t20 -8.5t8 -19.5v-478v-2q0 -6 3 -26t14 -41q7 -12 16 -23t22 -19.5t31.5 -14t44.5 -5.5q32 0 55 6t39 15t26.5 21t17.5 24q14 22 17 40.5t3 23.5v1v478q0 12 8 20t20 8t20 -8z" />
    <glyph glyph-name="oe" unicode="&#x153;" horiz-adv-x="777" 
d="M417 321v-132v-6q0 -3 0.5 -6.5t1.5 -8.5q2 -10 5 -22t10 -25q6 -12 15 -23.5t22.5 -20.5t32.5 -14.5t45 -5.5t44.5 5.5t31.5 14.5t22 20.5t16 23.5q12 25 15 47q2 11 2 21q0 11 8.5 19.5t20.5 8.5q11 0 19.5 -8.5t8.5 -19.5q0 -1 -0.5 -9t-2.5 -21t-6.5 -29t-13.5 -34
q-8 -17 -22.5 -34.5t-34.5 -31t-46.5 -22t-59.5 -8.5h-2q-63 0 -102.5 27t-57.5 60q-19 -33 -57.5 -60t-100.5 -27h-2q-34 0 -61 8t-47.5 22t-34.5 31t-23 35t-13.5 34t-6.5 29t-2.5 21t-0.5 9v320q0 2 3 29.5t20 62.5q9 18 23 35t34.5 31t47.5 22t61 8q31 0 56.5 -7
t45.5 -19t34.5 -28t23.5 -32q9 16 23.5 32t34 28t45 19t57.5 7q33 0 60 -8t47.5 -22t35 -31t22.5 -35q17 -35 20 -62.5t3 -29.5q0 -1 -0.5 -9t-2.5 -21t-6.5 -29t-13.5 -34q-8 -18 -22.5 -35t-35 -30.5t-47.5 -21.5t-60 -8h-132zM434 576q-7 -13 -10 -24.5t-5 -21.5
q-2 -11 -2 -21v-132h132q26 0 44.5 5.5t31.5 14.5t22 20.5t16 23.5q12 25 15 47q2 11 2 21v5q0 2 -0.5 6t-1.5 9q-2 10 -5 22.5t-10 24.5t-16 23.5t-22 20.5t-31.5 15t-44.5 6t-45 -6t-32.5 -15t-22.5 -20.5t-15 -23.5zM343 121q13 24 15 44.5t2 22.5v1v160v160v6t-2 14
q-2 10 -5 22.5t-10 24.5q-6 12 -15 23.5t-22 20.5t-32 15t-45 6t-45 -6t-32 -15t-22 -20.5t-16 -23.5q-7 -13 -10 -24.5t-5 -21.5q-2 -11 -2 -21v-320v-6q0 -3 0.5 -6.5t1.5 -8.5q2 -10 5 -22t10 -25q7 -12 16 -23.5t22 -20.5t32 -14.5t45 -5.5t45 5.5t32 14.5t22 20.5
t15 23.5z" />
    <glyph glyph-name="bullet" unicode="&#x2022;" horiz-adv-x="367" 
d="M327 357q0 -30 -11 -56t-30.5 -45.5t-45.5 -30.5t-56 -11t-56.5 11t-46 30.5t-30.5 45.5t-11 56t11 56t30.5 45.5t46 31t56.5 11.5t56 -11.5t45.5 -31t30.5 -45.5t11 -56z" />
  </font>
</defs>
</svg>
